<svg width="423" height="57" viewBox="0 0 423 57" fill="none" xmlns="http://www.w3.org/2000/svg">
<path d="M95.8013 16.1615C96.1275 16.1314 96.3831 15.86 96.3831 15.5301V14.8842C96.3831 14.5395 96.1056 14.26 95.7633 14.26H81.2501C80.9078 14.26 80.6302 14.5395 80.6302 14.8842V15.5296C80.6302 15.8597 80.8864 16.1313 81.2128 16.1608C84.244 16.4348 85.3192 17.3477 85.3192 20.0967V33.0289C85.3192 33.3132 85.128 33.5623 84.854 33.6306C79.33 35.0065 74.8564 34.8696 69.0006 33.6179C68.7158 33.557 68.5127 33.3029 68.5127 33.0097V20.0967C68.5127 17.3477 69.5879 16.4348 72.6191 16.1608C72.9455 16.1313 73.2016 15.8597 73.2016 15.5296V14.8842C73.2016 14.5395 72.9241 14.26 72.5818 14.26H58.1213C57.779 14.26 57.5015 14.5395 57.5015 14.8842V15.5296C57.5015 15.8597 57.7576 16.1312 58.084 16.1608C61.1094 16.4349 62.1378 17.3478 62.1378 20.0967V45.953C62.1378 48.2591 61.1031 49.2389 58.0562 49.6533C57.742 49.696 57.5015 49.9625 57.5015 50.2818V50.9532C57.5015 51.2979 57.779 51.5774 58.1213 51.5774H72.5818C72.9241 51.5774 73.2016 51.2979 73.2016 50.9532V50.2818C73.2016 49.9625 72.9611 49.696 72.6469 49.6534C69.5945 49.239 68.5127 48.2592 68.5127 45.953V36.7151C68.5127 36.2883 68.9287 35.9873 69.3339 36.1122C74.2963 37.6424 79.5465 37.8867 84.4632 36.1672C84.8768 36.0225 85.3192 36.3251 85.3192 36.7661V45.953C85.3192 48.2592 84.2374 49.239 81.1849 49.6534C80.8708 49.696 80.6302 49.9625 80.6302 50.2818V50.9532C80.6302 51.2979 80.9078 51.5774 81.2501 51.5774H95.7633C96.1056 51.5774 96.3831 51.2979 96.3831 50.9532V50.2809C96.3831 49.962 96.1433 49.6957 95.8296 49.6525C92.8213 49.2376 91.6941 48.2575 91.6941 45.953V20.0967C91.6941 17.3499 92.8143 16.4363 95.8013 16.1615Z" fill="#0B2E59"/>
<path d="M109.014 24.0295C101.322 24.0295 96.0006 29.6539 96.0006 38.8334C96.0006 45.8905 100.373 52.3109 108.276 52.3109C114.001 52.3109 117.923 48.7299 119.434 44.3979C119.537 44.1009 119.389 43.7783 119.104 43.6505L118.676 43.459C118.392 43.3321 118.061 43.4372 117.884 43.6932C116.306 45.9664 113.649 47.6946 110.436 47.6946C105.703 47.6946 102.444 43.9305 101.944 37.7901C101.915 37.4345 102.198 37.1355 102.552 37.1355H119.137C119.481 37.1355 119.76 36.8528 119.749 36.5065C119.513 29.4368 116.128 24.0295 109.014 24.0295ZM108.171 26.4172C111.592 26.4172 113.139 29.465 113.501 34.0363C113.53 34.3931 113.246 34.6947 112.891 34.6947H102.628C102.265 34.6947 101.979 34.3808 102.022 34.0179C102.566 29.366 104.6 26.4172 108.171 26.4172Z" fill="#0B2E59"/>
<path d="M150.682 49.6267C148.68 49.6267 147.428 48.6716 147.428 46.3369V24.6537C147.428 24.3089 147.151 24.0295 146.808 24.0295H145.231C145.024 24.0295 144.83 24.1338 144.715 24.3074L143.275 26.4827C143.039 26.84 142.522 26.8554 142.229 26.5435C140.883 25.1112 138.838 24.0295 135.679 24.0295C128.461 24.0295 122.508 29.6539 122.508 39.0457C122.508 46.2089 126.565 52.3109 133.73 52.3109C136.277 52.3109 138.474 51.1664 140.018 49.6412C140.462 49.2025 141.369 49.5015 141.369 50.128V51.0624C141.369 51.4072 141.647 51.6867 141.989 51.6867H142.686L151.182 51.4973C151.519 51.4898 151.789 51.2126 151.789 50.8732V50.2509C151.789 49.9061 151.511 49.6267 151.169 49.6267H150.682ZM135.785 48.5966C130.885 48.5966 128.83 42.7069 128.83 37.0824C128.83 30.609 131.622 26.5233 135.31 26.5233C139.736 26.5233 141.369 30.5029 141.369 34.7478V46.1484C141.369 46.3223 141.298 46.4892 141.168 46.6035C139.778 47.825 138.045 48.5966 135.785 48.5966Z" fill="#0B2E59"/>
<path d="M162.864 14.8749C162.864 14.5301 162.587 14.2506 162.244 14.2506H153.895C153.553 14.2506 153.275 14.5301 153.275 14.8749V15.3136C153.275 15.6188 153.495 15.8792 153.793 15.9294L153.908 15.9486C156.173 16.2669 156.805 17.3281 156.805 19.1853V46.4742C156.805 48.5414 155.229 49.1476 153.151 49.6057C152.863 49.6691 152.656 49.9239 152.656 50.2204V50.9438C152.656 51.2886 152.933 51.568 153.275 51.568H165.774C166.117 51.568 166.394 51.2886 166.394 50.9438V50.218C166.394 49.9226 166.187 49.6688 165.902 49.6019C163.946 49.1443 162.864 48.5357 162.864 46.4742V14.8749Z" fill="#0B2E59"/>
<path d="M184.562 48.2935C184.401 47.9697 184.003 47.8534 183.687 48.0265C182.737 48.5474 181.787 48.915 180.472 48.915C177.89 48.915 176.204 47.4293 176.204 44.0864V27.625C176.204 27.2803 176.482 27.0008 176.824 27.0008H183.54C183.882 27.0008 184.16 26.7213 184.16 26.3766V25.3965C184.16 25.0517 183.882 24.7722 183.54 24.7722H176.824C176.482 24.7722 176.204 24.4928 176.204 24.148V17.0254C176.204 16.6806 175.927 16.4011 175.584 16.4011H170.712C170.37 16.4011 170.093 16.6806 170.093 17.0254V24.148C170.093 24.4928 169.815 24.7722 169.473 24.7722H166.919C166.577 24.7722 166.299 25.0517 166.299 25.3965V26.3766C166.299 26.7213 166.577 27.0008 166.919 27.0008H169.473C169.815 27.0008 170.093 27.2803 170.093 27.625V44.2456C170.093 49.6047 172.78 52.3109 177.521 52.3109C180.531 52.3109 182.869 50.4643 184.455 49.1778C184.682 48.9931 184.751 48.6738 184.62 48.4105L184.562 48.2935Z" fill="#0B2E59"/>
<path d="M353.65 48.2935C353.489 47.9697 353.091 47.8534 352.775 48.0265C351.825 48.5474 350.874 48.915 349.559 48.915C346.977 48.915 345.292 47.4293 345.292 44.0864V27.625C345.292 27.2803 345.569 27.0008 345.911 27.0008H352.627C352.97 27.0008 353.247 26.7213 353.247 26.3766V25.3965C353.247 25.0517 352.97 24.7722 352.627 24.7722H345.911C345.569 24.7722 345.292 24.4928 345.292 24.148V17.0254C345.292 16.6806 345.014 16.4011 344.672 16.4011H339.8C339.458 16.4011 339.18 16.6806 339.18 17.0254V44.2456C339.18 49.6047 341.867 52.3109 346.609 52.3109C349.618 52.3109 351.957 50.4643 353.542 49.1778C353.77 48.9931 353.839 48.6738 353.708 48.4105L353.65 48.2935Z" fill="#0B2E59"/>
<path d="M211.979 46.4742V32.9967C211.979 27.16 208.765 24.0294 203.918 24.0294C201.143 24.0294 198.76 25.3349 196.364 27.8777C195.964 28.3018 195.225 28.0286 195.225 27.4438V14.8749C195.225 14.5301 194.947 14.2506 194.605 14.2506H186.256C185.913 14.2506 185.636 14.5301 185.636 14.8749V15.3187C185.636 15.6216 185.852 15.8808 186.148 15.9335L186.532 16.0016C188.481 16.32 189.166 17.222 189.166 19.0261V46.4742C189.166 48.5382 188.126 49.1458 186.131 49.6036C185.844 49.6695 185.636 49.9239 185.636 50.2204V50.9438C185.636 51.2886 185.913 51.568 186.256 51.568H198.135C198.477 51.568 198.755 51.2886 198.755 50.9438V50.218C198.755 49.9226 198.548 49.6688 198.262 49.6019C196.307 49.1443 195.225 48.5357 195.225 46.4742V31.8635C195.225 31.7052 195.284 31.552 195.393 31.4377C197.585 29.132 199.435 28.2743 201.336 28.2743C204.234 28.2743 205.92 30.0784 205.92 33.6335V46.4742C205.92 48.5173 204.945 49.1779 203.2 49.6008C202.914 49.6701 202.706 49.9237 202.706 50.2201V50.9438C202.706 51.2886 202.983 51.568 203.326 51.568H214.889C215.231 51.568 215.508 51.2886 215.508 50.9438V50.218C215.508 49.9226 215.302 49.6688 215.016 49.6019C213.061 49.1443 211.979 48.5357 211.979 46.4742Z" fill="#0B2E59"/>
<path d="M284.203 49.6266C282.149 49.6266 281.516 48.5654 281.516 46.3369V25.2686C281.516 24.9238 281.239 24.6443 280.897 24.6443H272.547C272.205 24.6443 271.928 24.9238 271.928 25.2686V25.7073C271.928 26.0125 272.147 26.2729 272.446 26.3231L272.56 26.3423C274.825 26.6606 275.458 27.7219 275.458 29.579V44.5218C275.458 44.6849 275.394 44.8423 275.28 44.9577C273.044 47.2098 271.245 48.066 269.346 48.066C266.501 48.066 264.762 46.262 264.762 42.7069V25.2686C264.762 24.9238 264.485 24.6443 264.143 24.6443H255.794C255.451 24.6443 255.174 24.9238 255.174 25.2686V25.7073C255.174 26.0125 255.393 26.2729 255.692 26.3231L255.806 26.3423C258.071 26.6606 258.704 27.7219 258.704 29.579V43.3436C258.704 49.1803 261.917 52.364 266.817 52.364C269.582 52.364 271.957 51.068 274.311 48.5436C274.71 48.1152 275.458 48.3876 275.458 48.9753V51.0624C275.458 51.4072 275.735 51.6867 276.077 51.6867H276.775L284.652 51.4982C284.988 51.4902 285.257 51.2132 285.257 50.8742V50.2509C285.257 49.9061 284.979 49.6266 284.637 49.6266H284.203Z" fill="#0B2E59"/>
<path d="M313.739 49.6267C311.737 49.6267 310.485 48.6716 310.485 46.3369V24.6537C310.485 24.3089 310.208 24.0295 309.865 24.0295H308.288C308.081 24.0295 307.887 24.1338 307.772 24.3074L306.332 26.4827C306.096 26.84 305.579 26.8554 305.286 26.5435C303.94 25.1112 301.895 24.0295 298.736 24.0295C291.518 24.0295 285.565 29.6539 285.565 39.0457C285.565 46.2089 289.622 52.3109 296.787 52.3109C299.334 52.3109 301.531 51.1664 303.075 49.6412C303.519 49.2025 304.426 49.5015 304.426 50.128V51.0624C304.426 51.4072 304.704 51.6867 305.046 51.6867H305.743L314.239 51.4973C314.576 51.4898 314.846 51.2126 314.846 50.8732V50.2509C314.846 49.9061 314.568 49.6267 314.226 49.6267H313.739ZM298.842 48.5966C293.942 48.5966 291.887 42.7069 291.887 37.0824C291.887 30.609 294.68 26.5233 298.368 26.5233C302.793 26.5233 304.426 30.5029 304.426 34.7478V46.1484C304.426 46.3223 304.355 46.4892 304.225 46.6035C302.836 47.825 301.102 48.5966 298.842 48.5966Z" fill="#0B2E59"/>
<path d="M333.192 23.9233C330.854 24.0803 328.632 25.4267 326.93 28.3487C326.571 28.964 325.341 28.7237 325.341 28.0103V24.9565C325.341 24.6117 325.064 24.3322 324.722 24.3322H316.373C316.03 24.3322 315.753 24.6117 315.753 24.9565V25.3952C315.753 25.7004 315.972 25.9608 316.271 26.011L316.385 26.0302C318.65 26.3485 319.283 29.2825 319.283 31.1396V46.315C319.283 48.3085 318.085 49.0381 315.626 49.6031C315.34 49.6689 315.133 49.923 315.133 50.2189V50.9438C315.133 51.2886 315.41 51.5681 315.753 51.5681H329.569C329.911 51.5681 330.189 51.2886 330.189 50.9438V50.2523C330.189 49.9417 329.96 49.6789 329.655 49.6298C326.388 49.1028 325.341 48.3316 325.341 46.315V34.2333C325.341 34.1525 325.357 34.0721 325.388 33.9977C326.559 31.1982 328.748 29.4396 331.295 29.2825C332.409 29.2051 333.551 29.4945 334.496 30.0066C334.933 30.2431 335.532 29.995 335.589 29.4987L336.135 24.6611C336.169 24.3579 335.981 24.0717 335.683 24.0157C335.002 23.8878 334.146 23.8397 333.192 23.9233Z" fill="#0B2E59"/>
<path d="M398.113 23.9233C395.776 24.0803 393.553 25.4267 391.851 28.3487C391.493 28.964 390.263 28.7237 390.263 28.0103V24.9565C390.263 24.6117 389.986 24.3322 389.643 24.3322H381.294C380.952 24.3322 380.674 24.6117 380.674 24.9565V25.3952C380.674 25.7004 380.893 25.9608 381.192 26.011L381.307 26.0302C383.572 26.3485 384.204 29.2825 384.204 31.1396V46.315C384.204 48.3068 383.555 49.0369 381.167 49.6016C380.881 49.6692 380.674 49.923 380.674 50.2189V50.9438C380.674 51.2886 380.952 51.5681 381.294 51.5681H394.49C394.833 51.5681 395.11 51.2886 395.11 50.9438V50.2523C395.11 49.9417 394.881 49.6789 394.577 49.6298C391.309 49.1028 390.263 48.3316 390.263 46.315V34.2333C390.263 34.1525 390.279 34.0721 390.31 33.9977C391.481 31.1982 393.669 29.4396 396.216 29.2825C397.331 29.2051 398.473 29.4945 399.418 30.0066C399.855 30.2431 400.454 29.995 400.51 29.4987L401.057 24.6611C401.091 24.3579 400.903 24.0717 400.605 24.0157C399.924 23.8878 399.068 23.8397 398.113 23.9233Z" fill="#0B2E59"/>
<path d="M367.993 24.0295C360.301 24.0295 354.98 29.6539 354.98 38.8334C354.98 45.8905 359.353 52.3109 367.256 52.3109C372.98 52.3109 376.902 48.7299 378.413 44.3979C378.517 44.1009 378.369 43.7783 378.083 43.6505L377.655 43.459C377.372 43.3321 377.041 43.4372 376.863 43.6932C375.285 45.9664 372.629 47.6946 369.416 47.6946C364.682 47.6946 361.424 43.9305 360.923 37.7901C360.894 37.4345 361.177 37.1355 361.532 37.1355H378.117C378.461 37.1355 378.74 36.8528 378.728 36.5065C378.492 29.4368 375.107 24.0295 367.993 24.0295ZM367.15 26.4172C370.571 26.4172 372.119 29.465 372.481 34.0363C372.509 34.3931 372.226 34.6947 371.87 34.6947H361.608C361.245 34.6947 360.959 34.3808 361.001 34.0179C361.545 29.366 363.58 26.4172 367.15 26.4172Z" fill="#0B2E59"/>
<path d="M412.674 24.0295C406.457 24.0295 402.505 27.16 402.558 32.0947C402.611 41.911 418.1 38.9396 418.153 45.7314C418.206 48.3844 415.94 50.0824 413.2 50.0824C410.528 50.0824 408.181 48.0692 406.378 44.2189C406.2 43.8397 405.713 43.7223 405.395 43.9922L401.832 47.0096C401.587 47.2173 401.537 47.5807 401.743 47.8281C403.646 50.1153 407.928 52.3109 412.674 52.3109C419.101 52.3109 423 48.4375 423 43.9804C423 33.2621 407.3 36.3926 407.3 29.9723C407.3 27.6907 409.407 26.258 412.094 26.258C414.668 26.258 416.704 27.9259 418.204 31.2616C418.389 31.6732 418.929 31.7858 419.245 31.4644L422.409 28.2374C422.627 28.0153 422.65 27.6635 422.438 27.4357C421.135 26.033 418.115 24.0295 412.674 24.0295Z" fill="#0B2E59"/>
<path fill-rule="evenodd" clip-rule="evenodd" d="M216.111 32.8438C216.111 21.2235 223.762 13.6357 234.808 13.6357C246.451 13.6357 252.931 23.839 252.931 33.1778C252.931 38.3037 251.322 42.6553 248.655 45.9183C248.459 46.1573 248.455 46.5051 248.662 46.7346C251.129 49.479 253.976 50.8701 256.879 50.9541C257.057 50.9592 257.226 51.0352 257.344 51.1698L260.408 54.6731C260.707 55.015 260.551 55.5533 260.111 55.6619C253.838 57.2122 249.03 54.9776 245.222 49.8579C245.021 49.5878 244.646 49.5183 244.362 49.6959C241.517 51.4694 238.148 52.4389 234.544 52.4389C222.901 52.4389 216.111 43.7962 216.111 32.8438ZM244.442 40.8771C244.756 41.2802 245.393 41.1713 245.513 40.6732C245.953 38.8468 246.162 36.8341 246.135 34.7165C246.03 26.4921 242.078 16.0765 233.701 16.1296C227.302 16.2265 223.759 24.2197 223.273 31.6796C223.246 32.087 223.618 32.3993 224.018 32.3284C230.801 31.1246 238.395 33.1229 244.442 40.8771ZM223.278 35.4537C223.257 35.1458 223.47 34.8713 223.772 34.8184C232.088 33.3616 238.505 37.2616 242.213 44.8249C242.395 45.1963 242.58 45.5595 242.768 45.9145C242.884 46.1346 242.863 46.4046 242.703 46.5949C240.983 48.6418 238.626 49.8694 235.651 49.8919C227.776 49.9911 223.809 43.028 223.278 35.4537Z" fill="#0B2E59"/>
<path fill-rule="evenodd" clip-rule="evenodd" d="M0 51.5933V12.9727L21.15 0.593262L42.3 12.9727V51.5933H0ZM19.1672 38.3833V44.7373H6.60938L6.60938 38.3833C6.60938 34.8741 9.42054 32.0293 12.8883 32.0293C16.356 32.0293 19.1672 34.8741 19.1672 38.3833ZM29.4117 15.8097C25.8527 15.8097 22.9676 18.7293 22.9676 22.3309C22.9676 25.9324 25.8527 28.8521 29.4117 28.8521C32.9707 28.8521 35.8559 25.9324 35.8559 22.3309C35.8559 18.7293 32.9707 15.8097 29.4117 15.8097Z" fill="#0B2E59"/>
</svg>
