<svg width="349" height="155" viewBox="0 0 349 155" fill="none" xmlns="http://www.w3.org/2000/svg">
<path d="M60.3234 108.518H47.0195L109.712 14.4691L116.637 24.5975L60.3234 108.518Z" fill="#00ACED"/>
<path d="M83.8332 108.518H70.5293L121.376 31.2894L128.301 41.4178L83.8332 108.518Z" fill="#00ACED"/>
<path d="M101.146 2.17036C100.6 1.62777 99.8706 0 98.0482 0C96.2257 0 95.4967 1.62777 95.1322 2.17036L23.5098 108.518H36.8137L105.156 8.13886L101.146 2.17036Z" fill="#00ACED"/>
<path d="M67.0663 17.9055C66.5196 17.182 65.7906 15.7351 64.1504 15.7351C62.3279 15.7351 61.5989 17.3629 61.2345 17.9055L0 108.518H13.3039L71.0757 23.874L67.0663 17.9055Z" fill="#00ACED"/>
<path d="M67.0668 17.9055C66.7023 17.182 65.7911 15.7351 64.1509 15.7351C62.3285 15.7351 61.5995 17.3629 61.235 17.9055L57.2256 23.874L114.633 108.518H127.937L67.0668 17.9055Z" fill="#D60B8A"/>
<path d="M101.147 2.17036C100.6 1.62777 99.8708 0 98.0484 0C96.2259 0 95.4969 1.62777 95.1324 2.17036L91.123 8.13886L161.652 108.518H174.956L101.147 2.17036Z" fill="#D60B8A"/>
<path d="M116.638 24.5975L109.712 14.4691L102.787 24.7783L109.895 34.7258L116.638 24.5975Z" fill="#221F72"/>
<path d="M128.301 41.4178L121.376 31.2894L114.633 41.4178L121.558 51.5461L128.301 41.4178Z" fill="#221F72"/>
<path d="M138.142 108.518H151.446L87.1134 14.2882L80.0059 24.5974L138.142 108.518Z" fill="#D60B8A"/>
<path d="M101.147 2.17036C100.6 1.62777 99.8708 0 98.0484 0C97.8661 0 97.6839 0 97.5016 0C96.2259 0.361727 95.4969 1.62777 95.1324 2.17036L91.4875 7.59627L91.123 8.13886L98.2306 18.2672L105.156 8.13886L101.147 2.17036Z" fill="#221F72"/>
<path d="M87.1134 14.2882L80.0059 24.5974L87.1134 34.7258L94.0387 24.4166L87.1134 14.2882Z" fill="#221F72"/>
<path d="M98.5943 51.3652L105.52 41.2369L98.5943 31.1085L91.6689 41.4177L98.5943 51.3652Z" fill="#221F72"/>
<path d="M110.441 68.3665L117.184 58.2381L110.259 48.1097L103.516 58.419L110.441 68.3665Z" fill="#221F72"/>
<path d="M67.0668 17.9055C66.5201 17.182 65.7911 15.7351 64.1509 15.7351C63.9687 15.7351 63.7864 15.7351 63.6042 15.7351C62.3285 16.0968 61.5995 17.3629 61.235 17.9055L57.2256 23.874L64.1509 34.0023L71.0762 23.6931L67.0668 17.9055Z" fill="#221F72"/>
<path d="M82.7393 41.056L75.814 30.9276L68.8887 41.2368L75.814 51.1843L82.7393 41.056Z" fill="#221F72"/>
<path d="M94.2212 58.0572L87.2958 47.9288L80.5527 58.2381L87.2958 68.1856L94.2212 58.0572Z" fill="#221F72"/>
<path d="M105.702 75.4201L98.9589 65.2917L92.2158 75.4201L99.1412 85.5484L105.702 75.4201Z" fill="#221F72"/>
<path d="M183.156 60.4085C186.072 60.4085 188.077 59.8659 188.077 54.44V31.2894L183.885 31.1086V29.2999L196.642 29.4808L204.843 51.5461L213.045 29.4808L225.619 29.2999V31.1086L221.428 31.2894V60.2276L225.619 60.4085V62.2171C223.615 62.2171 219.605 62.0362 217.418 62.0362C215.414 62.0362 211.587 62.2171 209.582 62.2171V60.4085L213.774 60.2276V33.4598H213.591L203.203 62.0362H200.652L190.264 33.4598H190.082V54.44C190.082 59.8659 192.086 60.4085 195.549 60.4085V62.2171C192.998 62.2171 191.357 62.0362 189.353 62.0362C187.348 62.0362 185.708 62.2171 183.156 62.2171V60.4085Z" fill="#231F20"/>
<path d="M226.53 50.461C226.53 41.5987 232.544 37.4388 239.287 37.4388C246.031 37.4388 252.045 41.0561 252.045 49.9184C252.045 58.7807 246.213 62.9406 239.287 62.9406C232.362 62.9406 226.53 59.3233 226.53 50.461ZM244.39 50.2802C244.39 43.2265 242.932 39.4283 239.287 39.4283C235.643 39.4283 234.185 43.2265 234.185 50.2802C234.185 57.3338 235.643 61.132 239.287 61.132C242.932 61.132 244.39 57.3338 244.39 50.2802Z" fill="#231F20"/>
<path d="M256.419 43.0456C256.419 40.1518 255.508 40.1518 252.774 40.1518V38.3431L263.162 37.8005V52.0888C263.162 57.1529 263.345 59.685 266.443 59.685C268.994 59.685 272.275 56.6103 272.275 51.5462V43.0456C272.275 40.1518 270.999 40.1518 268.812 40.1518V38.3431L279.2 37.8005V60.0467L282.845 60.2276V62.0362L272.821 62.5788L272.639 57.8764C270.999 60.7702 268.083 62.7597 263.891 62.7597C258.424 62.7597 256.419 59.8659 256.419 54.0783V43.0456Z" fill="#231F20"/>
<path d="M297.972 60.4084V62.2171C295.42 62.2171 294.145 62.0362 291.046 62.0362C287.948 62.0362 286.673 62.2171 284.121 62.2171V60.4084L287.766 60.2276V43.0455C287.766 40.3326 286.855 40.3326 284.121 40.3326V38.5239L294.145 37.9814L294.327 42.5029C296.149 39.6091 298.883 37.6196 303.075 37.6196C307.449 37.6196 310.547 40.3326 310.547 46.8437V60.4084L314.192 60.5893V62.3979C311.64 62.3979 310.182 62.2171 307.084 62.2171C303.986 62.2171 302.71 62.3979 300.159 62.3979V60.5893L303.621 60.4084V48.4714C303.621 42.8647 303.075 40.8752 300.159 40.8752C297.607 40.8752 294.327 43.9499 294.327 49.014V60.5893L297.972 60.4084Z" fill="#231F20"/>
<path d="M323.849 55.3443C323.667 58.5998 323.849 60.4084 326.036 60.4084C328.041 60.4084 329.134 57.6955 329.134 57.6955L330.774 58.2381C330.774 58.2381 329.681 62.9405 324.214 62.9405C317.835 62.9405 317.106 59.5041 317.106 55.3443V40.3326H313.097V38.3431H317.106V29.6616C321.115 29.6616 324.031 28.7573 324.031 28.7573V38.3431H329.863V40.3326H324.031V55.3443H323.849Z" fill="#231F20"/>
<path d="M187.53 96.2194C187.894 98.5707 191.357 107.433 198.282 107.433C202.656 107.433 204.296 105.082 204.296 102.369C204.296 92.783 186.254 98.0281 186.254 85.0059C186.254 77.2287 192.633 74.6967 197.371 74.6967C201.745 74.6967 203.932 76.1436 204.843 76.1436C205.754 76.1436 205.937 75.0584 205.937 75.0584H207.577C207.577 76.6862 207.395 77.9522 207.395 79.7608C207.395 82.2929 207.577 83.559 207.577 85.1867H205.937C205.572 82.8355 202.474 76.5053 197.007 76.5053C193.908 76.5053 191.721 78.4948 191.721 81.2077C191.721 90.0701 210.311 85.0059 210.311 98.9324C210.311 106.529 204.479 109.603 198.1 109.603C192.633 109.603 189.717 107.795 188.806 107.795C187.712 107.795 187.53 109.061 187.53 109.061H185.89C185.89 106.529 186.072 105.082 186.072 102.55C186.072 100.198 185.89 98.5707 185.89 96.5812H187.53V96.2194Z" fill="#231F20"/>
<path d="M226.167 106.709V108.518C223.615 108.518 222.157 108.337 219.059 108.337C215.961 108.337 214.685 108.518 212.134 108.518V106.709L215.779 106.529V89.3466C215.779 86.4528 214.867 86.4528 212.134 86.4528V84.6441L222.522 84.1015V106.348L226.167 106.709ZM219.241 71.6219C221.428 71.6219 223.433 73.0689 223.433 75.6009C223.433 78.133 221.428 79.5799 219.241 79.5799C217.054 79.5799 215.05 78.133 215.05 75.6009C215.05 73.0689 217.054 71.6219 219.241 71.6219Z" fill="#231F20"/>
<path d="M241.11 106.709V108.518C238.559 108.518 237.283 108.337 234.185 108.337C231.087 108.337 229.811 108.518 227.26 108.518V106.709L230.905 106.529V89.3466C230.905 86.6336 229.993 86.6336 227.26 86.6336V84.825L237.283 84.2824L237.466 88.804C239.288 85.9101 242.022 83.9207 246.213 83.9207C250.587 83.9207 253.685 86.6336 253.685 93.1447V106.709L257.33 106.89V108.699C254.779 108.699 253.321 108.518 250.223 108.518C247.124 108.518 245.849 108.699 243.297 108.699V106.89L246.76 106.709V94.7725C246.76 89.1657 246.213 87.1762 243.297 87.1762C240.746 87.1762 237.466 90.2509 237.466 95.3151V106.89L241.11 106.709Z" fill="#231F20"/>
<path d="M285.215 104.358C285.215 104.358 284.486 109.061 279.018 109.061C276.467 109.061 274.28 107.976 273.369 105.443C272.275 107.614 270.088 109.242 266.261 109.242C262.616 109.242 258.242 107.614 258.242 102.188C258.242 95.496 266.261 94.7725 273.369 94.7725V92.2404C273.551 88.0805 273.186 85.3676 269.724 85.3676C267.172 85.3676 265.897 86.6336 265.714 87.1762C265.714 87.1762 266.808 87.7188 266.808 89.5275C266.808 91.3361 265.532 92.6021 263.345 92.6021C261.34 92.6021 259.882 91.3361 259.882 89.3466C259.882 85.7293 264.621 83.559 270.27 83.559C279.383 83.559 280.294 88.6231 280.112 93.5065L279.929 103.273C279.929 104.901 280.476 105.986 281.57 105.986C283.028 105.986 283.574 103.816 283.574 103.816L285.215 104.358ZM273.186 96.5811C266.625 96.4003 265.168 98.2089 265.168 101.464C265.168 104.539 266.443 106.167 268.63 106.167C270.635 106.167 273.004 104.358 273.004 100.741L273.186 96.5811Z" fill="#231F20"/>
<path d="M299.429 106.709V108.518C296.878 108.518 295.42 108.337 292.321 108.337C289.223 108.337 287.948 108.518 285.214 108.518V106.709L288.859 106.529V89.3466C288.859 86.4528 287.948 86.4528 285.214 86.4528V84.6441L295.602 84.1015V106.348L299.429 106.709ZM292.321 71.6219C294.508 71.6219 296.513 73.0689 296.513 75.6009C296.513 78.133 294.508 79.5799 292.321 79.5799C290.134 79.5799 288.13 78.133 288.13 75.6009C288.13 73.0689 290.134 71.6219 292.321 71.6219Z" fill="#231F20"/>
<path d="M183.156 154.277V152.468L187.895 152.287V123.53L183.156 123.349V121.54C185.525 121.54 188.259 121.721 190.082 121.721C192.086 121.721 195.549 121.721 198.1 121.721C207.942 121.721 215.049 126.424 215.049 137.275C215.049 147.223 209.946 154.457 199.558 154.457C195.913 154.457 191.904 154.277 190.082 154.277C188.259 154.096 185.343 154.277 183.156 154.277ZM197.918 123.349H192.998V152.468H198.647C207.942 152.468 209.4 143.967 209.4 136.914C209.4 129.317 206.666 123.349 197.918 123.349Z" fill="#231F20"/>
<path d="M217.965 142.52C217.965 133.839 223.797 129.679 229.811 129.679C235.825 129.679 241.657 133.296 241.657 141.978C241.657 150.84 236.007 154.819 229.811 154.819C223.797 154.819 217.965 151.383 217.965 142.52ZM236.189 142.34C236.189 135.286 234.185 131.488 229.811 131.488C225.619 131.488 223.432 135.286 223.432 142.34C223.432 149.393 225.437 153.191 229.811 153.191C234.185 153.191 236.189 149.393 236.189 142.34Z" fill="#231F20"/>
<path d="M255.69 129.679C262.798 129.679 263.891 133.658 263.891 135.648C263.891 137.818 262.433 139.084 260.793 139.084C259.335 139.084 258.242 137.999 258.242 136.552C258.242 134.382 260.246 134.201 260.246 134.201C260.246 133.477 259.335 131.488 256.237 131.488C250.041 131.488 249.129 137.094 249.129 142.34C249.129 145.957 249.312 153.01 255.69 153.01C260.429 153.01 263.162 148.127 263.162 148.127L264.62 149.031C264.62 149.031 261.522 155 255.144 155C248.036 155 243.662 150.659 243.662 142.34C243.662 132.935 250.77 129.679 255.69 129.679Z" fill="#231F20"/>
<path d="M274.826 146.68C274.826 150.659 274.826 152.83 277.377 152.83C279.564 152.83 280.84 149.574 280.84 149.574L282.48 150.117C282.48 150.117 281.204 154.819 276.466 154.819C270.087 154.819 270.087 151.202 270.087 147.223V132.754H265.531V130.764H270.087V122.083C273.003 122.083 274.826 121.179 274.826 121.179V130.764H281.569V132.754H274.826V146.68Z" fill="#231F20"/>
<path d="M283.756 142.52C283.756 133.839 289.588 129.679 295.602 129.679C301.616 129.679 307.448 133.296 307.448 141.978C307.448 150.84 301.798 154.819 295.602 154.819C289.588 154.819 283.756 151.383 283.756 142.52ZM301.98 142.34C301.98 135.286 299.976 131.488 295.602 131.488C291.41 131.488 289.223 135.286 289.223 142.34C289.223 149.393 291.228 153.191 295.602 153.191C299.976 153.191 301.98 149.393 301.98 142.34Z" fill="#231F20"/>
<path d="M323.85 152.468V154.277C321.298 154.277 318.929 154.096 315.649 154.096C312.551 154.096 311.639 154.277 309.088 154.277V152.468L313.28 152.287V135.105C313.28 132.392 312.368 132.392 309.088 132.392V130.584L317.653 130.041L317.836 136.19C319.476 132.392 322.21 129.86 326.037 129.86C327.859 129.86 329.682 131.126 329.682 133.658C329.682 135.467 328.406 136.914 326.948 136.914C325.49 136.914 324.579 135.829 324.579 134.563C324.579 133.297 325.49 132.392 325.49 132.392C325.49 132.392 325.308 132.03 324.397 132.03C321.663 132.03 318.2 137.095 318.2 144.872V152.287L323.85 152.468Z" fill="#231F20"/>
<path d="M333.144 146.138C333.691 148.489 335.513 153.01 340.798 153.01C343.532 153.01 345.354 151.564 345.354 149.212C345.354 142.34 331.686 145.052 331.686 137.094C331.686 131.669 336.242 129.679 339.887 129.679C342.621 129.679 343.896 130.764 344.443 130.764C345.172 130.764 345.354 130.041 345.354 130.041H346.995C346.995 131.669 346.812 132.211 346.812 133.839C346.812 135.648 346.995 135.105 346.995 136.733H345.172C344.808 134.382 343.167 131.669 339.34 131.669C336.607 131.669 335.331 133.296 335.331 135.105C335.331 141.073 348.817 138.18 348.817 147.404C348.817 152.83 344.443 155.181 340.069 155.181C336.06 155.181 334.42 153.553 333.691 153.553C332.962 153.553 332.779 154.457 332.779 154.457H330.957C330.957 152.468 331.139 151.564 331.139 149.574C331.139 147.585 330.957 147.946 330.957 146.138H333.144Z" fill="#231F20"/>
</svg>
