<svg width="80" height="40" viewBox="0 0 80 40" fill="none" xmlns="http://www.w3.org/2000/svg">
<path d="M19 22.7852H26.2267V37.2386H19V22.7852Z" stroke="#C25A3F" stroke-width="2" stroke-miterlimit="23.3333" stroke-linecap="round" stroke-linejoin="round"/>
<path d="M26.2267 34.7093C45.1969 41.0327 38.8735 41.0327 60.5536 30.1926C59.289 28.5666 57.1209 27.8439 55.1336 28.3859L47.3649 30.9153" stroke="#C25A3F" stroke-width="2" stroke-miterlimit="23.3333" stroke-linecap="round" stroke-linejoin="round"/>
<path d="M26.2267 24.5919H31.6468C35.9828 24.5919 38.8735 28.2052 39.7768 28.2052H46.1002C47.9069 28.2052 47.9069 31.8186 46.1002 31.8186H36.1635" stroke="#C25A3F" stroke-width="2" stroke-miterlimit="23.3333" stroke-linecap="round" stroke-linejoin="round"/>
<path d="M43.7515 11.5838C43.7515 13.3905 45.1969 14.8358 47.0036 14.8358C48.8102 14.8358 50.2556 13.3905 50.2556 11.5838C50.2556 9.7771 48.8102 8.33176 47.0036 8.33176C45.1969 8.33176 43.7515 9.7771 43.7515 11.5838Z" stroke="#C25A3F" stroke-width="2" stroke-miterlimit="23.3333" stroke-linecap="round" stroke-linejoin="round"/>
<path d="M56.9403 8.33177C56.2176 6.16375 53.869 5.07974 51.7009 5.62175C51.3396 5.62175 51.1589 5.80242 50.9783 5.98308C51.5203 3.81507 50.0749 1.64705 47.9069 1.10505C45.7389 0.563044 43.3902 2.18906 43.0289 4.35707C42.8482 4.89908 42.8482 5.44108 43.0289 6.16375C41.0415 5.07974 38.5122 5.62175 37.4282 7.6091C36.3442 9.59644 36.8862 12.1258 38.8735 13.2098C39.4155 13.5711 39.9575 13.7518 40.4995 13.7518C38.8735 15.1972 38.6928 17.9072 40.1382 19.5332C41.5835 21.1592 44.2935 21.3399 45.9196 19.8945C46.2809 19.5332 46.6422 18.9912 47.0036 18.4492C47.9069 20.4365 50.4363 21.5205 52.4236 20.6172C54.411 19.7139 55.495 17.1845 54.5916 15.1972C54.2303 14.6551 53.869 14.1131 53.5076 13.7518C55.8563 13.5711 57.4823 11.5838 57.121 9.23511C57.121 8.87377 57.121 8.6931 56.9403 8.33177Z" stroke="#C25A3F" stroke-width="2" stroke-miterlimit="23.3333" stroke-linecap="round" stroke-linejoin="round"/>
</svg>
