<svg width="80" height="40" viewBox="0 0 80 40" fill="none" xmlns="http://www.w3.org/2000/svg">
<path d="M46.7826 14.2174C46.7826 17.0261 48.9304 19.1739 51.7391 19.1739C54.5478 19.1739 56.6957 17.0261 56.6957 14.2174C56.6957 11.4087 54.5478 9.26086 51.7391 9.26086C48.9304 9.26086 46.7826 11.4087 46.7826 14.2174Z" stroke="#C25A3F" stroke-width="2" stroke-miterlimit="23.3333" stroke-linecap="round" stroke-linejoin="round"/>
<path d="M26.9565 2.65219C24.1478 2.65219 22 4.80002 22 7.60871V14.2174C22 18.8435 25.6348 22.4783 30.2609 22.4783C34.887 22.4783 38.5217 18.8435 38.5217 14.2174V7.60871C38.5217 4.80002 36.3739 2.65219 33.5652 2.65219" stroke="#C25A3F" stroke-width="2" stroke-miterlimit="23.3333" stroke-linecap="round" stroke-linejoin="round"/>
<path d="M30.2609 22.4783V35.6957C30.2609 37.513 31.7478 39 33.5652 39C35.3826 39 36.8696 37.513 36.8696 35.6957V26.113C36.8696 23.8 38.687 21.9826 41 21.9826C43.313 21.9826 45.1304 23.8 45.1304 26.113V32.3913C45.1304 34.2087 46.6174 35.6957 48.4348 35.6957C50.2522 35.6957 51.7391 34.2087 51.7391 32.3913V19.1739" stroke="#C25A3F" stroke-width="2" stroke-miterlimit="23.3333" stroke-linecap="round" stroke-linejoin="round"/>
<path d="M26.9565 1V5.13043" stroke="#C25A3F" stroke-width="2" stroke-miterlimit="23.3333" stroke-linecap="round" stroke-linejoin="round"/>
<path d="M33.5652 1V5.13043" stroke="#C25A3F" stroke-width="2" stroke-miterlimit="23.3333" stroke-linecap="round" stroke-linejoin="round"/>
</svg>
