<svg width="80" height="40" viewBox="0 0 80 40" fill="none" xmlns="http://www.w3.org/2000/svg">
<path d="M25.4286 7.78571C25.4286 11.5857 28.4143 14.5714 32.2143 14.5714C36.0143 14.5714 39 11.5857 39 7.78571C39 3.98571 36.0143 1 32.2143 1C28.4143 1 25.4286 3.98571 25.4286 7.78571Z" stroke="#C25A3F" stroke-width="2" stroke-miterlimit="23.3333" stroke-linecap="round" stroke-linejoin="round"/>
<path d="M25.4286 39H41.7143V30.5857L43.6143 33.0286C46.6 36.8286 51.2143 38.4571 55.8286 37.3714C57.7286 37.1 59.3571 35.4714 59.3571 33.3C59.3571 31.1286 57.7286 29.2286 55.2857 29.2286C55.0143 29.2286 54.7429 29.2286 54.2 29.2286C52.5714 29.7714 50.9429 29.2286 49.8571 27.8714L45.7857 22.7143C44.7 21.0857 42.2571 20 39.8143 20H28.1429C23.5286 20 20 23.5286 20 28.1429V33.5714C20 36.5571 22.4429 39 25.4286 39Z" stroke="#C25A3F" stroke-width="2" stroke-miterlimit="23.3333" stroke-linecap="round" stroke-linejoin="round"/>
<path d="M25.4286 39H34.9286C37.1 39 39 37.1 39 34.9286C39 32.7571 37.1 30.8571 34.9286 30.8571H33.8429" stroke="#C25A3F" stroke-width="2" stroke-miterlimit="23.3333" stroke-linecap="round" stroke-linejoin="round"/>
<path d="M20 33.5714L36.2857 20L32.2143 39" stroke="#C25A3F" stroke-width="2" stroke-miterlimit="23.3333" stroke-linecap="round" stroke-linejoin="round"/>
</svg>
