<svg width="80" height="40" viewBox="0 0 80 40" fill="none" xmlns="http://www.w3.org/2000/svg">
<path d="M49.9365 38.7506C49.6039 39.0832 49.105 39.0832 48.7724 38.7506L40.7899 30.4355C39.2932 28.9387 38.9606 26.6105 39.7921 24.6149C40.9562 22.1204 44.116 21.1225 46.6105 22.2867C47.1094 22.453 47.6083 22.7856 47.9409 23.2845L49.2713 24.6149L50.6018 23.2845C52.5974 21.2888 55.7571 21.2888 57.7527 23.2845C58.0853 23.6171 58.418 24.116 58.7506 24.6149C59.7484 26.6105 59.4158 28.9387 57.7527 30.4355L49.9365 38.7506Z" stroke="#C25A3F" stroke-width="2" stroke-miterlimit="23.3333" stroke-linecap="round" stroke-linejoin="round"/>
<path d="M37.9628 16.4661C39.9584 16.6324 41.954 16.2998 43.6171 15.302C43.9497 15.1357 44.116 14.6368 43.9497 14.1379C43.9497 14.1379 43.9497 14.1379 43.9497 13.9716C43.2845 13.14 42.7856 12.1422 42.6193 8.98249C42.2866 3.16192 38.2954 1 34.8031 1C31.3107 1 27.3195 3.16193 26.9869 9.1488C26.8206 12.1422 26.3217 13.3063 25.6565 13.9716C25.3238 14.3042 25.3238 14.8031 25.6565 15.1357C25.6565 15.1357 25.6565 15.1357 25.8228 15.1357C27.4858 16.1335 29.4814 16.6324 31.477 16.2998" stroke="#C25A3F" stroke-width="2" stroke-miterlimit="23.3333" stroke-linecap="round" stroke-linejoin="round"/>
<path d="M40.1247 19.1269L38.628 18.628C38.1291 18.4617 37.7965 17.9628 37.7965 17.4639V15.302C37.7965 14.9694 37.9628 14.6368 38.1291 14.4705C38.9606 13.8053 39.4595 12.6411 39.4595 11.6433V8.4836C37.6302 8.15099 35.8009 7.15318 34.6368 5.65646C33.4726 7.15318 31.8096 8.15099 29.814 8.4836V11.6433C29.814 12.8074 30.1466 13.8053 31.1444 14.4705C31.3107 14.8031 31.477 15.1357 31.477 15.302V17.4639C31.477 17.9628 31.1444 18.4617 30.6455 18.628C26.1554 20.291 22.9956 21.4552 22.1641 23.1182C21.4989 24.6149 21 26.1116 21 27.7746H35.9672" stroke="#C25A3F" stroke-width="2" stroke-miterlimit="23.3333" stroke-linecap="round" stroke-linejoin="round"/>
</svg>
