<svg width="80" height="40" viewBox="0 0 80 40" fill="none" xmlns="http://www.w3.org/2000/svg">
<path d="M19.5454 38.0909C19.7273 38.0909 19.9091 38.2728 19.9091 38.6364" stroke="#C25A3F" stroke-width="2" stroke-miterlimit="23.3333" stroke-linecap="round" stroke-linejoin="round"/>
<path d="M19 38.6364C19 38.4546 19.1818 38.2728 19.3636 38.2728" stroke="#C25A3F" stroke-width="2" stroke-miterlimit="23.3333" stroke-linecap="round" stroke-linejoin="round"/>
<path d="M19.5454 39C19.3636 39 19.1818 38.8182 19.1818 38.6364" stroke="#C25A3F" stroke-width="2" stroke-miterlimit="23.3333" stroke-linecap="round" stroke-linejoin="round"/>
<path d="M19.9091 38.6364C19.9091 38.8182 19.7272 39 19.3636 39" stroke="#C25A3F" stroke-width="2" stroke-miterlimit="23.3333" stroke-linecap="round" stroke-linejoin="round"/>
<path d="M24.0907 31.9094C24.2725 31.9094 24.4544 32.0912 24.4544 32.273" stroke="#C25A3F" stroke-width="2" stroke-miterlimit="23.3333" stroke-linecap="round" stroke-linejoin="round"/>
<path d="M23.5453 32.273C23.5453 32.0912 23.7271 31.9094 23.9089 31.9094" stroke="#C25A3F" stroke-width="2" stroke-miterlimit="23.3333" stroke-linecap="round" stroke-linejoin="round"/>
<path d="M24.0907 32.8184C23.7271 32.8184 23.5453 32.4548 23.5453 32.273" stroke="#C25A3F" stroke-width="2" stroke-miterlimit="23.3333" stroke-linecap="round" stroke-linejoin="round"/>
<path d="M24.4544 32.273C24.4544 32.4548 24.2725 32.6366 24.0907 32.6366" stroke="#C25A3F" stroke-width="2" stroke-miterlimit="23.3333" stroke-linecap="round" stroke-linejoin="round"/>
<path d="M19.5454 26.455C19.7273 26.455 19.9091 26.6368 20.0909 26.8186" stroke="#C25A3F" stroke-width="2" stroke-miterlimit="23.3333" stroke-linecap="round" stroke-linejoin="round"/>
<path d="M19 26.8186C19 26.6368 19.1818 26.455 19.3636 26.455" stroke="#C25A3F" stroke-width="2" stroke-miterlimit="23.3333" stroke-linecap="round" stroke-linejoin="round"/>
<path d="M19.5454 27.3641C19.3636 27.3641 19.1818 27.1823 19.1818 27.0005" stroke="#C25A3F" stroke-width="2" stroke-miterlimit="23.3333" stroke-linecap="round" stroke-linejoin="round"/>
<path d="M19.9091 26.8186C19.9091 27.1823 19.7273 27.3641 19.5454 27.3641" stroke="#C25A3F" stroke-width="2" stroke-miterlimit="23.3333" stroke-linecap="round" stroke-linejoin="round"/>
<path d="M30.4541 38.0909C30.6359 38.0909 30.8177 38.2728 30.8177 38.6364" stroke="#C25A3F" stroke-width="2" stroke-miterlimit="23.3333" stroke-linecap="round" stroke-linejoin="round"/>
<path d="M29.9087 38.6364C29.9087 38.4546 30.0905 38.2728 30.2723 38.2728" stroke="#C25A3F" stroke-width="2" stroke-miterlimit="23.3333" stroke-linecap="round" stroke-linejoin="round"/>
<path d="M30.4541 39C30.2723 39 30.0905 38.8182 30.0905 38.6364" stroke="#C25A3F" stroke-width="2" stroke-miterlimit="23.3333" stroke-linecap="round" stroke-linejoin="round"/>
<path d="M30.8177 38.6364C30.8177 38.8182 30.6359 39 30.4541 39" stroke="#C25A3F" stroke-width="2" stroke-miterlimit="23.3333" stroke-linecap="round" stroke-linejoin="round"/>
<path d="M34.9994 31.9094C35.1812 31.9094 35.363 32.0912 35.363 32.273" stroke="#C25A3F" stroke-width="2" stroke-miterlimit="23.3333" stroke-linecap="round" stroke-linejoin="round"/>
<path d="M34.4539 32.273C34.4539 32.0912 34.6358 31.9094 34.8176 31.9094" stroke="#C25A3F" stroke-width="2" stroke-miterlimit="23.3333" stroke-linecap="round" stroke-linejoin="round"/>
<path d="M34.9994 32.8184C34.6358 32.8184 34.4539 32.4548 34.4539 32.273" stroke="#C25A3F" stroke-width="2" stroke-miterlimit="23.3333" stroke-linecap="round" stroke-linejoin="round"/>
<path d="M35.363 32.273C35.363 32.4548 35.1812 32.6366 34.9994 32.6366" stroke="#C25A3F" stroke-width="2" stroke-miterlimit="23.3333" stroke-linecap="round" stroke-linejoin="round"/>
<path d="M44.999 38.0909C45.1808 38.0909 45.3626 38.2728 45.3626 38.4546" stroke="#C25A3F" stroke-width="2" stroke-miterlimit="23.3333" stroke-linecap="round" stroke-linejoin="round"/>
<path d="M44.4536 38.6364C44.4536 38.4546 44.6354 38.2728 44.8172 38.2728" stroke="#C25A3F" stroke-width="2" stroke-miterlimit="23.3333" stroke-linecap="round" stroke-linejoin="round"/>
<path d="M44.999 39C44.8172 39 44.6354 38.8182 44.6354 38.6364" stroke="#C25A3F" stroke-width="2" stroke-miterlimit="23.3333" stroke-linecap="round" stroke-linejoin="round"/>
<path d="M45.3626 38.6364C45.3626 38.8182 45.1808 39 44.999 39" stroke="#C25A3F" stroke-width="2" stroke-miterlimit="23.3333" stroke-linecap="round" stroke-linejoin="round"/>
<path d="M49.5443 31.9094C49.7261 31.9094 49.9079 32.0912 49.9079 32.273" stroke="#C25A3F" stroke-width="2" stroke-miterlimit="23.3333" stroke-linecap="round" stroke-linejoin="round"/>
<path d="M48.9989 32.273C48.9989 32.0912 49.1807 31.9094 49.3625 31.9094" stroke="#C25A3F" stroke-width="2" stroke-miterlimit="23.3333" stroke-linecap="round" stroke-linejoin="round"/>
<path d="M49.5443 32.8184C49.3625 32.8184 49.1807 32.6366 49.1807 32.4548" stroke="#C25A3F" stroke-width="2" stroke-miterlimit="23.3333" stroke-linecap="round" stroke-linejoin="round"/>
<path d="M49.9079 32.273C49.9079 32.4548 49.7261 32.6366 49.5443 32.6366" stroke="#C25A3F" stroke-width="2" stroke-miterlimit="23.3333" stroke-linecap="round" stroke-linejoin="round"/>
<path d="M40.4537 26.455C40.6355 26.455 40.8174 26.6368 40.8174 26.8186" stroke="#C25A3F" stroke-width="2" stroke-miterlimit="23.3333" stroke-linecap="round" stroke-linejoin="round"/>
<path d="M39.9083 26.8186C39.9083 26.6368 40.0901 26.455 40.2719 26.455" stroke="#C25A3F" stroke-width="2" stroke-miterlimit="23.3333" stroke-linecap="round" stroke-linejoin="round"/>
<path d="M40.4537 27.3641C40.2719 27.3641 40.0901 27.1823 40.0901 27.0005" stroke="#C25A3F" stroke-width="2" stroke-miterlimit="23.3333" stroke-linecap="round" stroke-linejoin="round"/>
<path d="M40.8174 26.8186C40.8174 27.0004 40.6355 27.1823 40.4537 27.1823" stroke="#C25A3F" stroke-width="2" stroke-miterlimit="23.3333" stroke-linecap="round" stroke-linejoin="round"/>
<path d="M55.9077 38.0909C56.0895 38.0909 56.2713 38.2728 56.2713 38.4546" stroke="#C25A3F" stroke-width="2" stroke-miterlimit="23.3333" stroke-linecap="round" stroke-linejoin="round"/>
<path d="M55.3623 38.6364C55.3623 38.4546 55.5441 38.2728 55.7259 38.2728" stroke="#C25A3F" stroke-width="2" stroke-miterlimit="23.3333" stroke-linecap="round" stroke-linejoin="round"/>
<path d="M55.9077 39C55.7259 39 55.5441 38.8182 55.5441 38.6364" stroke="#C25A3F" stroke-width="2" stroke-miterlimit="23.3333" stroke-linecap="round" stroke-linejoin="round"/>
<path d="M56.2713 38.6364C56.2713 38.8182 56.0895 39 55.9077 39" stroke="#C25A3F" stroke-width="2" stroke-miterlimit="23.3333" stroke-linecap="round" stroke-linejoin="round"/>
<path d="M60.453 31.9094C60.6348 31.9094 60.8166 32.0912 60.8166 32.273" stroke="#C25A3F" stroke-width="2" stroke-miterlimit="23.3333" stroke-linecap="round" stroke-linejoin="round"/>
<path d="M59.9075 32.273C59.9075 32.0912 60.0893 31.9094 60.2712 31.9094" stroke="#C25A3F" stroke-width="2" stroke-miterlimit="23.3333" stroke-linecap="round" stroke-linejoin="round"/>
<path d="M60.453 32.8184C60.2712 32.8184 60.0894 32.6366 60.0894 32.4548" stroke="#C25A3F" stroke-width="2" stroke-miterlimit="23.3333" stroke-linecap="round" stroke-linejoin="round"/>
<path d="M60.8166 32.273C60.8166 32.4548 60.6348 32.6366 60.453 32.6366" stroke="#C25A3F" stroke-width="2" stroke-miterlimit="23.3333" stroke-linecap="round" stroke-linejoin="round"/>
<path d="M31.7268 20.0916C31.7268 21.5461 30.4541 22.8188 28.9996 22.8188C27.5451 23.0006 26.4543 21.9097 26.2725 20.4552C26.2725 20.2734 26.2725 20.2734 26.2725 20.0916C26.2725 17.9099 30.0905 0.819629 31.7268 1.00144V20.0916Z" stroke="#C25A3F" stroke-width="2" stroke-miterlimit="23.3333" stroke-linecap="round" stroke-linejoin="round"/>
<path d="M53.5442 20.0916C53.5442 21.5461 52.2715 22.8188 50.817 22.8188C49.3625 23.0006 48.2716 21.9097 48.0898 20.4552C48.0898 20.2734 48.0898 20.2734 48.0898 20.0916C48.0898 17.9099 51.9079 0.819629 53.5442 1.00144V20.0916Z" stroke="#C25A3F" stroke-width="2" stroke-miterlimit="23.3333" stroke-linecap="round" stroke-linejoin="round"/>
<path d="M60.8166 21.0007H58.0894C57.544 21.0007 57.1804 21.3643 57.1804 21.7279C56.8167 25.1823 53.5441 27.7277 50.0897 27.1823C47.1808 26.8186 44.999 24.4551 44.6354 21.7279C44.6354 21.3643 44.2718 21.0007 43.7263 21.0007H36.2721C35.7266 21.0007 35.363 21.3643 35.363 21.7279C34.9994 25.1823 31.7268 27.7277 28.2724 27.1823C25.3634 26.8186 23.1817 24.4551 22.818 21.7279C22.818 21.1825 22.4544 21.0007 21.909 21.0007H19" stroke="#C25A3F" stroke-width="2" stroke-miterlimit="23.3333" stroke-linecap="round" stroke-linejoin="round"/>
</svg>
