<svg width="144" height="80" viewBox="0 0 144 80" fill="none" xmlns="http://www.w3.org/2000/svg">
<g clip-path="url(#clip0)">
<path d="M52.0808 43.0661C52.0808 43.2414 51.9494 43.3728 51.6866 43.3728C50.5472 43.3728 49.2332 43.3728 47.7874 43.329C46.517 43.2852 45.4654 43.2852 44.5893 43.2852C43.5816 43.2852 42.3111 43.2852 40.8216 43.329C39.2444 43.3728 37.8863 43.3728 36.791 43.3728C36.5282 43.3728 36.3967 43.2852 36.3967 43.0661C36.3967 42.8471 36.4844 42.7595 36.7034 42.7595C38.193 42.7157 39.2444 42.628 39.9016 42.4966C40.5587 42.3652 40.8654 42.1461 40.8654 41.8395C40.8654 41.6642 40.6902 41.3576 40.3835 40.9194L37.6234 37.1518H27.4157L24.568 40.6566C24.2175 41.1385 24.0423 41.489 24.0423 41.708C24.0423 42.3652 25.4004 42.7157 28.0728 42.7595C28.2919 42.7595 28.3795 42.8471 28.3795 43.0661C28.3795 43.2852 28.2481 43.3728 27.9852 43.3728C26.9776 43.3728 25.8823 43.3728 24.6994 43.329C23.5604 43.2852 22.5528 43.2852 21.6327 43.2852C20.9318 43.2852 20.0118 43.2852 18.9603 43.329C17.8212 43.3728 16.8574 43.3728 16.0689 43.3728C15.806 43.3728 15.6746 43.2852 15.6746 43.1099C15.6746 42.9347 15.8498 42.8033 16.2441 42.8033C17.6022 42.7595 18.6975 42.5842 19.5298 42.2775C20.3184 42.0147 21.1508 41.4013 22.027 40.569L33.5929 27.7764C33.6805 27.645 33.8996 27.6012 34.2938 27.6012C34.6881 27.6012 34.951 27.645 35.0386 27.7764L45.2903 40.569C45.8596 41.2699 46.6484 41.8395 47.656 42.1461C48.6199 42.4966 49.978 42.7157 51.5989 42.8033C51.9053 42.8033 52.0808 42.8909 52.0808 43.0661ZM37.0101 36.4946L32.6729 30.8869L27.9852 36.4946H37.0101Z" fill="#B4121B"/>
<path d="M18.7471 47.7544H144" stroke="#231F20" stroke-width="0.932272"/>
<path d="M24.8778 28.4784C24.8778 28.7851 24.7464 28.9603 24.4835 28.9603C23.0816 29.0918 22.0301 29.267 21.2854 29.4422C20.5406 29.6613 20.0149 29.9241 19.752 30.2746C19.4453 30.6251 19.3139 31.2384 19.3139 32.1146V48.7187C19.3139 51.0406 18.6568 53.3187 17.2987 55.4654C15.9406 57.656 14.1443 59.4083 11.91 60.7227C9.6757 62.037 7.35374 62.6941 4.94417 62.6941C3.54227 62.6941 2.44701 62.475 1.61462 62.037C0.78223 61.6427 0.387939 61.0293 0.387939 60.3284C0.387939 59.6274 0.738423 59.0579 1.39557 58.5759C2.05272 58.1379 2.92893 57.875 3.98037 57.875C4.5061 57.875 4.988 57.9626 5.38229 58.094C5.77658 58.2693 6.30232 58.5759 6.87184 59.0579C7.66042 59.7588 8.40521 60.1093 9.10613 60.1093C10.6395 60.1093 11.8662 59.1893 12.7862 57.3931C13.7062 55.5968 14.1443 53.0121 14.1443 49.7263V32.1585C14.1443 31.2823 14.0129 30.6689 13.75 30.3184C13.4434 29.9679 12.9615 29.6613 12.2167 29.4422C11.4719 29.2232 10.4204 29.0479 9.01852 28.9165C8.75567 28.9165 8.62423 28.7412 8.62423 28.4346C8.62423 28.1279 8.75567 27.9527 9.01852 27.9527C10.1138 27.9527 11.4281 27.9965 12.9615 28.0403C14.451 28.0841 15.6777 28.1279 16.6853 28.1279C17.6929 28.1279 18.9634 28.0841 20.453 28.0403C21.9863 27.9965 23.3006 27.9527 24.4397 27.9527C24.7464 27.9965 24.8778 28.1279 24.8778 28.4784Z" fill="#B4121B"/>
<path d="M82.7919 37.4567C82.7919 37.6319 82.6605 37.7196 82.3977 37.7633C80.3826 37.8948 79.0681 38.0262 78.3234 38.2891C77.6223 38.5519 77.2281 39.0338 77.2281 39.7348V41.0929C77.2281 42.2758 77.4031 43.1082 77.7537 43.5463C75.5631 43.9406 73.1538 44.291 70.6126 44.5539C68.0719 44.8168 65.7936 44.9482 63.8658 44.9482C60.0984 44.9482 56.7688 44.5977 53.9212 43.8967C51.0736 43.1958 48.8389 42.1882 47.2621 40.8739C45.6849 39.5596 44.8524 38.1138 44.8524 36.5367C44.8524 34.9595 45.7285 33.5138 47.4372 32.1557C49.1458 30.8414 51.5551 29.7899 54.5782 29.089C57.6013 28.3442 61.0623 27.9937 64.8738 27.9937C66.3633 27.9937 68.3784 28.1251 70.8754 28.388C73.1101 28.6071 74.7747 28.6947 75.9577 28.6947C76.1764 29.7899 76.5711 31.1042 77.0967 32.6376C77.0967 32.769 76.8339 32.8128 76.3083 32.8128C75.9577 32.8128 75.7386 32.769 75.6949 32.6376C74.2491 30.0089 70.3498 28.6947 64.0413 28.6947C60.1861 28.6947 56.9002 29.4833 54.2718 30.9728C51.6429 32.5061 50.3289 34.3462 50.3289 36.5367C50.3289 38.6834 51.6429 40.4796 54.2718 41.9691C56.9002 43.4587 60.0984 44.2034 63.8658 44.2034C69.43 44.2034 72.1899 43.5463 72.1899 42.232V39.1215C72.1899 38.6834 71.752 38.3767 70.8754 38.2015C69.9993 38.0262 67.8964 37.851 64.5669 37.6757C64.3041 37.6757 64.1727 37.5881 64.1727 37.369C64.1727 37.1938 64.3041 37.0624 64.5669 37.0624C65.6622 37.0624 67.3272 37.0624 69.4737 37.1062C71.5765 37.15 73.1101 37.15 74.1177 37.15C75.1252 37.15 76.4397 37.15 78.0606 37.1062C79.8129 37.0624 81.2587 37.0624 82.354 37.0624C82.6605 37.15 82.7919 37.2376 82.7919 37.4567Z" fill="#B4121B"/>
<path d="M83.4487 38.9453L83.887 36.7548H89.188L88.7497 38.9453H83.4487Z" fill="#231F20"/>
<path d="M97.9534 45.7802C95.7628 45.7802 94.0542 45.1668 92.8275 43.9401C91.6008 42.7134 90.9874 41.0925 90.9874 39.0334C90.9874 37.0619 91.513 35.1781 92.521 33.3381C93.5286 31.498 94.8867 30.0085 96.5953 28.8694C98.304 27.7304 100.275 27.2046 102.51 27.2046C104.788 27.2046 106.496 27.818 107.723 29.0447C108.95 30.2713 109.519 31.8923 109.519 33.9076C109.519 35.8791 109.037 37.7629 108.03 39.6029C107.022 41.443 105.664 42.9325 103.955 44.0715C102.334 45.2106 100.319 45.7802 97.9534 45.7802ZM98.7855 43.3706C99.9249 43.3706 101.02 42.9763 102.071 42.2315C103.079 41.4867 103.955 40.3477 104.613 38.8143C105.313 37.281 105.62 35.7476 105.62 34.2142C105.62 32.6809 105.27 31.5418 104.568 30.7971C103.868 30.0523 102.948 29.658 101.809 29.658C100.713 29.658 99.618 30.0523 98.5668 30.7971C97.5151 31.5857 96.6826 32.7247 95.982 34.2142C95.3245 35.7038 94.9744 37.2372 94.9744 38.7705C94.9744 40.3477 95.3245 41.4867 96.0693 42.2315C96.814 42.9763 97.7343 43.3706 98.7855 43.3706Z" fill="#0094BA" stroke="#231F20" stroke-width="0.932272"/>
<path d="M110.698 45.3404L114.202 27.685H117.488L123.227 39.9956L125.681 27.685H128.528L125.024 45.3404H121.825L116.043 32.986L113.589 45.3404H110.698Z" fill="#0094BA" stroke="#231F20" stroke-width="0.932272"/>
<path d="M129.315 45.3404L132.82 27.685H143.947L143.465 30.1383H136.018L135.054 35.0451H141.012L140.574 37.3232H134.616L133.52 42.9309H141.45L140.968 45.3842H129.315V45.3404Z" fill="#0094BA" stroke="#231F20" stroke-width="0.932272"/>
</g>
<defs>
<clipPath id="clip0">
<rect width="144" height="54" fill="white" transform="translate(0 18)"/>
</clipPath>
</defs>
</svg>
