<svg width="144" height="80" viewBox="0 0 144 80" fill="none" xmlns="http://www.w3.org/2000/svg">
<g clip-path="url(#clip0)">
<path d="M11.5979 41.8889C10.6002 41.0165 9.72729 40.4682 8.97903 40.1441C8.2557 39.8451 7.50748 39.6955 6.70932 39.6705C6.21049 39.6705 5.76153 39.5709 5.36247 39.3465C4.98834 39.1472 4.71397 38.8231 4.53942 38.4243L4.56435 38.4492C4.41469 38.0504 4.36481 37.7014 4.41469 37.3525C4.46457 36.9537 4.58928 36.6546 4.78881 36.3804C4.98834 36.1062 5.2627 35.8819 5.58693 35.7074C5.9112 35.5579 6.2604 35.4581 6.63448 35.4581C7.25805 35.4581 7.85664 35.5329 8.45527 35.7074C9.02893 35.857 9.55269 36.1062 10.0765 36.4302C10.4755 36.6297 10.9245 36.7543 11.3984 36.7044C11.9222 36.6546 12.3462 36.4302 12.6704 36.0813C12.87 35.8819 13.0446 35.6327 13.1443 35.3086C13.2441 35.0095 13.269 34.7104 13.2441 34.4362C13.2191 34.1122 13.1193 33.838 12.9697 33.5888C12.82 33.3146 12.6205 33.1152 12.3212 32.9407C11.4732 32.4173 10.5753 32.0184 9.65245 31.7442C8.72959 31.4701 7.70701 31.3455 6.63448 31.3455C5.76153 31.3455 4.9135 31.495 4.14033 31.844C3.39208 32.168 2.71865 32.6167 2.12005 33.19C1.52145 33.7632 1.07249 34.4113 0.723312 35.1591C0.399068 35.9068 0.199534 36.7044 0.199534 37.5768V37.7264C0.224476 38.6237 0.448951 39.4712 0.823077 40.2438C1.1972 41.0415 1.72098 41.7144 2.39441 42.2628H2.34452C2.8683 42.7115 3.51678 43.1103 4.2401 43.4094C4.96341 43.7085 5.71167 43.858 6.48486 43.883C6.98368 43.9079 7.43265 44.0076 7.83171 44.2319C8.20584 44.4313 8.45527 44.7304 8.62983 45.1542L8.6049 45.1292C8.75457 45.5281 8.80443 45.877 8.75457 46.226C8.70466 46.6248 8.57997 46.9239 8.38044 47.1981C8.18091 47.4722 7.90654 47.7215 7.58227 47.896C7.25805 48.0455 6.90885 48.1452 6.53472 48.1452C5.9112 48.1452 5.31261 48.0704 4.73895 47.896C4.16527 47.7464 3.64149 47.4972 3.14266 47.1981C2.71865 46.9488 2.2697 46.8491 1.79581 46.8989C1.32191 46.9488 0.922846 47.1482 0.57366 47.4722C0.374126 47.6716 0.174592 47.9458 0.0748251 48.22C0.0249417 48.4693 0 48.7684 0 49.0924C0.0249417 49.3915 0.0997668 49.6657 0.249417 49.9399C0.399068 50.2141 0.623542 50.4633 0.922846 50.6378C1.77086 51.1363 2.66876 51.5351 3.61655 51.8093C4.53942 52.0834 5.53707 52.2081 6.60955 52.2081C7.48251 52.2081 8.33053 52.0585 9.10372 51.7096C9.85198 51.3855 10.5254 50.9369 11.124 50.3636C11.7226 49.7903 12.1716 49.1422 12.4958 48.3695C12.82 47.5968 12.9946 46.7993 12.9946 45.9518V45.8272C12.9697 44.9049 12.7951 44.0575 12.421 43.2848C12.0718 42.537 11.573 41.8889 10.9494 41.3655L11.5979 41.8889Z" fill="#00BAD9"/>
<path d="M49.6103 30.5987C49.8843 30.4741 50.1836 30.3245 50.4081 30.0503C50.6079 29.8011 50.8073 29.5518 50.9072 29.2776C51.0066 29.0035 51.0818 28.7043 51.0818 28.3554C51.0818 27.6575 50.8572 27.0593 50.3834 26.5857C49.9095 26.1121 49.3358 25.8878 48.6374 25.8878C47.939 25.8878 47.3405 26.1121 46.8666 26.5857C46.3928 27.0593 46.1682 27.6326 46.1682 28.3554C46.1682 28.7043 46.243 29.0284 46.3676 29.3275C46.4923 29.5768 46.6421 29.826 46.8666 30.0753C47.0912 30.3494 47.3652 30.5239 47.6645 30.6486C47.939 30.7482 48.2635 30.823 48.6374 30.823L48.6873 30.7981C49.0365 30.7981 49.3106 30.7233 49.6103 30.5987ZM50.2088 32.518C49.8096 32.1192 49.3358 31.9197 48.7373 31.9197C48.4875 31.9197 48.2382 31.9696 47.9637 32.0693C47.7144 32.169 47.5151 32.3186 47.3153 32.4681C47.1159 32.6426 46.9413 32.8919 46.8414 33.166C46.742 33.4402 46.6921 33.6894 46.6921 33.9636V46.1522C46.6921 46.4264 46.6421 46.6756 46.5422 46.8999C46.4423 47.0993 46.3428 47.2739 46.143 47.4732C45.9685 47.6477 45.7691 47.7972 45.5697 47.872C45.3699 47.9718 45.1207 48.0216 44.8462 48.0216C44.5719 48.0216 44.3225 47.9718 44.1229 47.872C43.9234 47.7724 43.7488 47.6726 43.5493 47.4732C43.3747 47.2987 43.225 47.0993 43.1502 46.8999C43.0504 46.7006 43.0006 46.4513 43.0006 46.1522V39.522C42.9507 38.4253 42.7262 37.3784 42.377 36.4063C42.0278 35.4093 41.504 34.5619 40.8306 33.8141C40.1323 33.0414 39.3092 32.4432 38.3365 32.0194C37.3388 31.5708 36.2663 31.3714 35.0192 31.3714C34.3458 31.3714 33.6973 31.4461 33.0737 31.6456C32.4502 31.82 31.8516 32.0693 31.2779 32.3933C30.7542 32.6924 30.2304 33.0913 29.7565 33.5648C29.4821 33.839 29.2577 34.0633 29.0332 34.3375C28.8586 34.0883 28.6591 33.839 28.4595 33.6147C28.0106 33.1162 27.5616 32.7423 27.0628 32.4182C26.539 32.0942 25.9653 31.845 25.2919 31.6456C24.6684 31.4461 23.8952 31.3714 23.0222 31.3714C22.4486 31.3714 21.8749 31.4461 21.376 31.6456C20.8523 31.845 20.3784 32.0693 19.9544 32.3435C19.6052 32.5927 19.256 32.8669 18.9069 33.2159C18.832 32.9167 18.6325 32.6426 18.408 32.4182C18.0089 32.0194 17.535 31.82 16.9614 31.82C16.3877 31.82 15.9138 32.0194 15.4898 32.4182C15.0908 32.8171 14.8912 33.2906 14.8912 33.8889V49.5919C14.8912 50.1652 15.0908 50.6388 15.4898 51.0625C15.8889 51.4613 16.3628 51.6607 16.9614 51.6607C17.535 51.6607 18.0089 51.4613 18.408 51.0625C18.8071 50.6637 19.0066 50.1901 19.0066 49.5919V39.7713C19.0315 39.1481 19.1562 38.5749 19.3558 38.0764C19.5553 37.5529 19.8546 37.0793 20.2287 36.7054C20.6029 36.3066 21.0269 36.0075 21.5257 35.8081C21.9996 35.6087 22.5234 35.4841 23.0721 35.4841C23.6458 35.4841 24.1197 35.5838 24.5437 35.7583C24.9677 35.9327 25.3418 36.182 25.7159 36.506C26.0402 36.8051 26.3395 37.179 26.564 37.6028C26.7884 38.0265 26.9381 38.4502 27.0379 38.8989V49.6168C27.0379 50.1901 27.2374 50.6637 27.6364 51.0874C28.0355 51.4863 28.5094 51.6857 29.0831 51.6857C29.6567 51.6857 30.1306 51.4863 30.5546 51.0874C30.9786 50.6886 31.1782 50.2151 31.1782 49.6168V38.8989L31.1532 38.9986C31.228 38.5001 31.4276 38.0514 31.6521 37.6028C31.9015 37.179 32.2008 36.8051 32.5499 36.506C32.8742 36.2069 33.2733 35.9826 33.7222 35.8081C34.1712 35.6337 34.6451 35.5339 35.119 35.5339C35.7176 35.5339 36.2663 35.6337 36.7651 35.858C37.239 36.0574 37.6381 36.3565 37.9873 36.7802C38.3365 37.2039 38.6108 37.6526 38.7854 38.176C38.9849 38.7244 39.0598 39.2977 39.0598 39.9457V46.202C39.0598 46.9997 39.2094 47.7724 39.5336 48.4952C39.833 49.218 40.2819 49.8411 40.8057 50.3895C41.3294 50.9628 41.9779 51.3865 42.7013 51.6857C43.4246 52.0097 44.1977 52.1592 45.0207 52.1592C45.8438 52.1592 46.6421 52.0097 47.3652 51.6857C48.0888 51.3865 48.7121 50.9379 49.2611 50.3895C49.7849 49.8411 50.2335 49.218 50.5328 48.4952C50.8572 47.7474 51.0066 46.9997 51.0066 46.202V33.3405L50.7326 33.3654C50.6079 33.0663 50.4581 32.7672 50.2088 32.518Z" fill="#00BAD9"/>
<path d="M57.4658 51.1365C57.865 50.7377 58.0648 50.2641 58.0648 49.6659V23.6188C58.0648 23.0455 57.865 22.547 57.4658 22.1482C57.0667 21.7494 56.5681 21.55 55.9943 21.55C55.4206 21.55 54.9467 21.7494 54.5228 22.1482C54.1237 22.547 53.9243 23.0455 53.9243 23.6188V49.6659C53.9243 50.2392 54.1237 50.7377 54.5228 51.1365C54.922 51.5353 55.3958 51.7347 55.9943 51.7347L56.0195 51.7098C56.5681 51.7347 57.0667 51.5603 57.4658 51.1365Z" fill="#00BAD9"/>
<path d="M72.6046 35.9316C73.2031 36.131 73.7769 36.4301 74.2507 36.804C74.7493 37.2028 75.1984 37.6265 75.5476 38.1251C75.747 38.3992 75.9216 38.6983 76.0714 38.9974H65.1967C65.3461 38.6734 65.5207 38.4241 65.7205 38.1499C66.0945 37.6514 66.5935 37.1529 67.0674 36.804C67.566 36.4301 68.1397 36.1559 68.7634 35.9316C69.3871 35.7322 69.9856 35.6076 70.6588 35.6076L70.684 35.5826C71.3824 35.6076 72.0057 35.7072 72.6046 35.9316ZM68.0151 31.8189C67.192 32.0432 66.369 32.3922 65.5707 32.8658C64.8228 33.3144 64.0992 33.8628 63.4759 34.461C62.8023 35.1091 62.2537 35.807 61.8294 36.5049C61.3807 37.2028 61.0315 38.0253 60.757 38.9226C60.4825 39.82 60.3579 40.7173 60.3331 41.6146C60.3079 43.0603 60.5824 44.4062 61.131 45.7024C61.68 46.9985 62.4031 48.0703 63.3261 49.0175C64.249 49.9397 65.3466 50.7124 66.6435 51.2607C67.9404 51.8091 69.262 52.0833 70.7088 52.0833C72.3301 52.0833 73.8264 51.7592 75.1984 51.0613C76.57 50.3884 77.7423 49.4661 78.69 48.2946V48.3195C78.9645 47.9955 79.1391 47.6216 79.1391 47.2228C79.1643 46.8489 79.0891 46.5 78.9397 46.176C78.7899 45.8519 78.5406 45.5777 78.2161 45.3534C77.8921 45.1291 77.5177 45.0294 77.0691 45.0294C76.8693 45.0294 76.6452 45.0543 76.4454 45.1041C76.296 45.1291 76.1461 45.2039 75.9216 45.3036C75.6723 45.4033 75.4477 45.5777 75.2731 45.7772C74.6994 46.4501 74.0262 46.9736 73.2778 47.3474C72.5295 47.7213 71.6817 47.9207 70.734 47.9207C69.9604 47.9207 69.2373 47.7961 68.5389 47.5219C67.8405 47.2478 67.2168 46.8988 66.6934 46.4252C66.1696 45.9766 65.7205 45.4033 65.3461 44.7303C65.0968 44.2567 64.9222 43.8329 64.7976 43.3344H78.4659C78.8398 43.3344 79.189 43.2597 79.5382 43.0852C79.8627 42.9356 80.1367 42.7113 80.3613 42.4371C80.5858 42.1629 80.7352 41.8638 80.8603 41.5398C80.985 41.1659 81.0097 40.817 80.9598 40.468C80.7852 39.1968 80.4112 38.0503 79.8127 36.9535C79.239 35.8818 78.4659 34.9346 77.5677 34.137C76.6947 33.3393 75.6471 32.7162 74.4748 32.2426C73.3026 31.769 71.9809 31.5198 70.5094 31.4948L70.4343 31.5696C69.6112 31.4948 68.7882 31.5946 68.0151 31.8189Z" fill="#00BAD9"/>
<path d="M96.7251 51.1365C97.1238 50.7377 97.3236 50.2641 97.3236 49.6659V23.6188C97.3236 23.0455 97.1238 22.547 96.7251 22.1482C96.3259 21.7494 95.8269 21.55 95.2531 21.55C94.6798 21.55 94.206 21.7494 93.7816 22.1482C93.3825 22.547 93.1831 23.0455 93.1831 23.6188V49.6659C93.1831 50.2392 93.3825 50.7377 93.7816 51.1365C94.1808 51.5353 94.6546 51.7347 95.2531 51.7347L95.2783 51.7098C95.8269 51.7347 96.3259 51.5603 96.7251 51.1365Z" fill="#00BAD9"/>
<path d="M110.019 47.7212C109.196 47.7212 108.398 47.5717 107.675 47.2477C106.952 46.9236 106.303 46.4999 105.754 45.9515C105.206 45.4032 104.782 44.7551 104.457 44.0323C104.133 43.3094 103.983 42.5118 103.983 41.6893C103.983 40.8667 104.133 40.0691 104.457 39.3462C104.782 38.6234 105.206 37.9754 105.754 37.427C106.303 36.8786 106.952 36.43 107.675 36.1309C108.398 35.8069 109.196 35.6573 110.019 35.6573C110.842 35.6573 111.641 35.8069 112.364 36.1309C113.087 36.4549 113.736 36.8786 114.284 37.427C114.833 37.9754 115.282 38.6234 115.581 39.3462C115.906 40.0691 116.055 40.8667 116.055 41.6893C116.055 42.5118 115.906 43.3094 115.581 44.0323C115.257 44.7551 114.833 45.4032 114.284 45.9515C113.736 46.4999 113.087 46.9485 112.364 47.2477C111.641 47.5467 110.842 47.7212 110.019 47.7212ZM120.196 50.2885V33.8377C120.196 33.2644 119.996 32.7909 119.597 32.3671C119.198 31.9683 118.724 31.7689 118.126 31.7689C117.552 31.7689 117.078 31.9683 116.679 32.3671C116.28 32.7659 116.08 33.2395 116.08 33.8377V33.9374C115.706 33.5885 115.307 33.2395 114.858 32.9404C114.284 32.5665 113.586 32.2674 112.763 31.9932C111.965 31.7191 111.042 31.5945 110.044 31.5945C108.648 31.5945 107.351 31.8686 106.103 32.392C104.856 32.9155 103.809 33.6383 102.886 34.5606C101.963 35.4828 101.24 36.5297 100.716 37.776C100.192 38.9973 99.9181 40.3184 99.9181 41.7142C99.9181 43.11 100.192 44.4061 100.716 45.6524C101.24 46.8987 101.938 47.9456 102.861 48.8678C103.784 49.79 104.832 50.5129 106.079 51.0363C107.326 51.5597 108.622 51.8339 110.019 51.8339C111.017 51.8339 111.89 51.7342 112.663 51.5099C113.437 51.3105 114.135 51.0114 114.733 50.6624C115.207 50.3883 115.656 50.0642 116.03 49.6654C116.03 50.2387 116.23 50.7123 116.629 51.1111C117.028 51.5099 117.502 51.7093 118.076 51.7093C118.649 51.7093 119.123 51.5099 119.547 51.1111C119.946 50.7123 120.146 50.2387 120.146 49.6405L120.196 50.2885Z" fill="#00BAD9"/>
<path d="M127.326 41.7387C127.326 40.9162 127.476 40.1186 127.8 39.3957C128.124 38.6729 128.548 38.0248 129.097 37.4765C129.646 36.9281 130.294 36.4795 131.017 36.1804C131.741 35.8563 132.539 35.7068 133.362 35.7068C134.185 35.7068 134.983 35.8563 135.707 36.1804C136.43 36.5044 137.078 36.9281 137.627 37.4765C138.176 38.0248 138.625 38.6729 138.924 39.3957C139.248 40.1186 139.398 40.9162 139.398 41.7387C139.398 42.5613 139.248 43.3589 138.924 44.0817C138.6 44.8046 138.176 45.4526 137.627 46.001C137.078 46.5493 136.43 46.9731 135.707 47.2971C134.983 47.6212 134.185 47.7707 133.362 47.7707C132.539 47.7707 131.741 47.6212 131.017 47.2971C130.294 46.9731 129.646 46.5493 129.097 46.001C128.548 45.4526 128.1 44.8046 127.8 44.0817C127.501 43.3589 127.326 42.5613 127.326 41.7387ZM123.859 51.1107C124.258 51.5095 124.732 51.7089 125.331 51.7089C125.904 51.7089 126.378 51.5095 126.802 51.1107C127.201 50.7119 127.401 50.2383 127.401 49.6401V49.5903C127.775 49.9641 128.199 50.3131 128.723 50.6371C129.321 50.9861 129.995 51.2852 130.793 51.5095C131.566 51.7089 132.439 51.8336 133.437 51.8336C134.834 51.8336 136.155 51.5594 137.403 51.0359C138.65 50.4876 139.722 49.7647 140.62 48.8425C141.543 47.9202 142.266 46.8734 142.815 45.6271C143.364 44.3808 143.613 43.0847 143.613 41.664C143.613 40.7168 143.488 39.8195 143.239 38.972C142.99 38.1495 142.665 37.3269 142.191 36.5542C141.743 35.8064 141.194 35.1085 140.595 34.5104C139.997 33.9121 139.298 33.4136 138.525 32.94C137.727 32.4914 136.929 32.1424 136.131 31.9181C135.258 31.6688 134.36 31.5691 133.412 31.5691C132.414 31.5691 131.516 31.7187 130.693 31.9679C129.92 32.2421 129.222 32.5412 128.598 32.965C128.124 33.289 127.7 33.613 127.376 33.962V23.7176C127.376 23.1443 127.177 22.6707 126.777 22.247C126.378 21.8482 125.904 21.6488 125.306 21.6488C124.732 21.6488 124.233 21.8482 123.834 22.247C123.435 22.6458 123.235 23.1194 123.235 23.7176L123.261 49.665C123.261 50.2383 123.46 50.7119 123.859 51.1107Z" fill="#00BAD9"/>
</g>
<defs>
<clipPath id="clip0">
<rect width="144" height="54" fill="white" transform="translate(0 13)"/>
</clipPath>
</defs>
</svg>
