<svg width="144" height="80" viewBox="0 0 144 80" fill="none" xmlns="http://www.w3.org/2000/svg">
<path d="M40.7276 63.8578H23.8558C23.4766 63.8578 23.1622 63.5434 23.1622 63.1642L33.0334 18.1936C33.0334 17.8144 33.3478 17.5 33.727 17.5H50.5987C50.9779 17.5 51.2923 17.8144 51.2923 18.1936L41.4212 63.1642C41.4212 63.541 41.1068 63.8578 40.7276 63.8578Z" fill="#08376B"/>
<path d="M28.082 31.5631H25.2764L21.2709 49.791H24.0764L28.082 31.5631Z" fill="#08376B"/>
<path d="M16.5712 49.791H19.2831L23.2887 31.5631H20.5767L16.5712 49.791Z" fill="#08376B"/>
<path d="M18.5903 31.5631H16.6655C16.2864 31.5631 15.972 31.8775 15.972 32.2567L12 49.0974C12 49.4766 12.3144 49.791 12.6936 49.791H14.5848L18.5903 31.5631Z" fill="#08376B"/>
<path d="M61.7626 31.5631H30.0687L26.0631 49.791H57.8196C58.1988 49.791 58.5132 49.4766 58.5132 49.0974L62.4538 32.2567C62.4562 31.8799 62.1394 31.5631 61.7626 31.5631Z" fill="#08376B"/>
<path d="M71.8656 41.0971L71.5848 36.7747H72.1464C72.3048 37.7827 72.7224 38.6491 73.3992 39.3691C74.076 40.0891 74.94 40.4491 75.9936 40.4491C76.9007 40.4491 77.6111 40.1827 78.1223 39.6499C78.6335 39.1171 78.8903 38.4475 78.8903 37.6387C78.8903 36.9619 78.6887 36.4003 78.2855 35.9515C77.8823 35.5051 77.2559 35.0947 76.404 34.7203L75.4104 34.3099C74.2152 33.8059 73.3056 33.2443 72.6864 32.6227C72.0672 32.0036 71.7576 31.1684 71.7576 30.1148C71.7576 28.9052 72.168 27.9812 72.9888 27.3476C73.8096 26.714 74.8632 26.3972 76.1448 26.3972C76.9655 26.3972 77.6927 26.5484 78.3287 26.8508C78.5879 26.9516 78.7679 27.002 78.8687 27.002C78.9839 27.002 79.0703 26.954 79.1279 26.8604C79.1855 26.7668 79.2359 26.6324 79.2791 26.4596H79.7543L79.9703 30.2852H79.4087C79.2647 29.3348 78.9263 28.5692 78.3935 27.9932C77.8607 27.4172 77.1263 27.1292 76.188 27.1292C75.4248 27.1292 74.8152 27.3356 74.3616 27.746C73.908 28.1564 73.68 28.766 73.68 29.5724C73.68 30.2636 73.8816 30.8108 74.2848 31.214C74.688 31.6172 75.3072 31.9988 76.1448 32.3587L77.1815 32.7907C77.9447 33.1219 78.5831 33.4531 79.0943 33.7843C79.6055 34.1155 80.0279 34.5523 80.3591 35.0923C80.6903 35.6323 80.8559 36.2923 80.8559 37.0699C80.8559 38.3371 80.4191 39.3403 79.5479 40.0747C78.6767 40.8091 77.4983 41.1763 76.0128 41.1763C75.4656 41.1763 75.012 41.1355 74.652 41.0563C74.292 40.9771 73.9104 40.8643 73.5072 40.7203C73.248 40.6051 73.0464 40.5475 72.9024 40.5475C72.744 40.5475 72.624 40.5979 72.5448 40.6987C72.4656 40.7995 72.4176 40.9291 72.4032 41.0875H71.8656V41.0971ZM89.0493 30.5708C90.3453 30.5708 91.3269 30.9956 91.9893 31.8452C92.6517 32.6947 92.9829 33.9571 92.9829 35.6275C92.9829 37.5019 92.5797 38.8939 91.7733 39.8107C90.9669 40.7251 89.8485 41.1835 88.4231 41.1835C87.8759 41.1835 87.4007 41.0995 86.9975 40.9339C86.5943 40.7683 86.2127 40.5403 85.8527 40.2523V43.4515C85.8527 43.8115 85.8863 44.0683 85.9511 44.2195C86.0159 44.3707 86.1575 44.4763 86.3735 44.5339C86.5895 44.5915 86.9495 44.6203 87.4535 44.6203V45.2465H82.5479V44.6203C83.0375 44.6203 83.3807 44.5939 83.5751 44.5435C83.7695 44.4931 83.8919 44.3923 83.9423 44.2411C83.9927 44.0899 84.0191 43.8259 84.0191 43.4515V32.6011C84.0191 32.2556 83.9711 32.0252 83.8775 31.91C83.7839 31.7948 83.5847 31.7372 83.2823 31.7372H82.6343V31.1108L85.2071 30.6788H85.7903V31.7372C86.1647 31.4204 86.6255 31.1468 87.1727 30.9164C87.7175 30.686 88.3439 30.5708 89.0493 30.5708ZM88.1855 40.4923C90.0453 40.4923 90.9741 38.9659 90.9741 35.9107C90.9741 34.4851 90.7581 33.3859 90.3261 32.6155C89.8941 31.8452 89.2317 31.4588 88.3367 31.4588C87.5015 31.4588 86.6735 31.8188 85.8503 32.5387V39.3883C86.5271 40.1251 87.3071 40.4923 88.1855 40.4923ZM97.1133 28.7756C96.7677 28.7756 96.4821 28.6628 96.2589 28.4396C96.0357 28.2164 95.9229 27.938 95.9229 27.6068C95.9229 27.2612 96.0357 26.9732 96.2589 26.7428C96.4821 26.5124 96.7677 26.3972 97.1133 26.3972C97.4733 26.3972 97.7613 26.5124 97.9773 26.7428C98.1933 26.9732 98.3013 27.2612 98.3013 27.6068C98.3013 27.938 98.1885 28.2164 97.9653 28.4396C97.7421 28.6628 97.4589 28.7756 97.1133 28.7756ZM94.7781 40.9243V40.2979C95.2533 40.2979 95.5917 40.2691 95.7933 40.2115C95.9949 40.1539 96.1221 40.0531 96.1725 39.9091C96.2229 39.7651 96.2493 39.5059 96.2493 39.1315V32.6875C96.2493 32.3131 96.2085 32.0636 96.1293 31.9412C96.0501 31.8188 95.8797 31.7564 95.6205 31.7564H94.8861V31.1084L97.5021 30.6764H98.1069V39.1291C98.1069 39.5035 98.1357 39.7675 98.1933 39.9187C98.2509 40.0699 98.3781 40.1707 98.5725 40.2211C98.7669 40.2715 99.1029 40.2979 99.5781 40.2979V40.9243H94.7781ZM110.904 39.1291C110.904 39.4891 110.932 39.7459 110.99 39.8971C111.048 40.0483 111.177 40.1539 111.379 40.2115C111.58 40.2691 111.919 40.2979 112.394 40.2979V40.9243H107.661V40.2979C108.122 40.2979 108.446 40.2715 108.633 40.2211C108.82 40.1707 108.943 40.0723 109 39.9283C109.058 39.7843 109.087 39.5323 109.087 39.1723V33.9211C109.087 33.2299 108.924 32.6707 108.6 32.246C108.276 31.8212 107.767 31.6076 107.076 31.6076C106.514 31.6076 106.039 31.742 105.65 32.0084C105.261 32.2747 104.887 32.6539 104.527 33.1435V39.1723C104.527 39.5323 104.556 39.7891 104.613 39.9403C104.671 40.0915 104.793 40.1899 104.98 40.2331C105.168 40.2763 105.484 40.2979 105.931 40.2979V40.9243H101.198V40.2979C101.673 40.2979 102.012 40.2691 102.213 40.2115C102.415 40.1539 102.542 40.0531 102.592 39.9091C102.643 39.7651 102.669 39.5059 102.669 39.1315V32.6875C102.669 32.3131 102.626 32.0636 102.54 31.9412C102.453 31.8188 102.288 31.7564 102.043 31.7564H101.309V31.1084L103.86 30.6764H104.464V32.2747H104.486C104.976 31.6988 105.501 31.2692 106.063 30.9884C106.624 30.7076 107.265 30.566 107.988 30.566C109.934 30.566 110.906 31.6028 110.906 33.6787V39.1291H110.904ZM122.596 35.7571V35.9515H115.723C115.751 37.2907 115.994 38.3515 116.447 39.1291C116.901 39.9067 117.705 40.2955 118.857 40.2955C119.692 40.2955 120.355 40.0795 120.847 39.6475C121.336 39.2155 121.696 38.6611 121.927 37.9819L122.531 38.2411C122.229 39.1195 121.761 39.8251 121.127 40.3603C120.494 40.8931 119.551 41.1595 118.295 41.1595C116.755 41.1595 115.605 40.7131 114.847 39.8203C114.091 38.9275 113.711 37.6435 113.711 35.9731C113.711 34.2571 114.1 32.9299 114.878 31.9844C115.655 31.0388 116.803 30.5684 118.315 30.5684C121.171 30.5708 122.596 32.2987 122.596 35.7571ZM115.723 35.2603H120.585C120.585 33.8923 120.419 32.8795 120.088 32.2244C119.757 31.5692 119.174 31.2404 118.336 31.2404C117.487 31.2404 116.853 31.5764 116.433 32.246C116.013 32.9155 115.78 33.9211 115.723 35.2603ZM71.5848 63.6208V62.9944C72.132 62.9944 72.5184 62.9656 72.7416 62.908C72.9648 62.8504 73.1064 62.7448 73.164 62.5936C73.2216 62.4424 73.2504 62.1712 73.2504 61.7824V51.2129C73.2504 50.8385 73.2168 50.5721 73.152 50.4137C73.0872 50.2553 72.9432 50.1473 72.72 50.0897C72.4968 50.0321 72.1176 49.9961 71.5848 49.9817V49.3553H76.9032V49.9817C76.3704 49.9817 75.9912 50.0153 75.768 50.0801C75.5448 50.1449 75.4008 50.2577 75.336 50.4161C75.2712 50.5745 75.2376 50.8409 75.2376 51.2153V55.7753H82.1975V51.2153C82.1975 50.8409 82.1639 50.5745 82.0991 50.4161C82.0343 50.2577 81.8903 50.1449 81.6671 50.0801C81.4439 50.0153 81.0647 49.9817 80.5319 49.9817V49.3553H85.8503V49.9817C85.3175 49.9961 84.9383 50.0321 84.7151 50.0897C84.4919 50.1473 84.3479 50.2553 84.2831 50.4137C84.2183 50.5721 84.1847 50.8385 84.1847 51.2129V61.7824C84.1847 62.1568 84.2183 62.4232 84.2831 62.5816C84.3479 62.74 84.4919 62.848 84.7151 62.9056C84.9383 62.9632 85.3175 62.992 85.8503 62.992V63.6184H80.5319V62.992C81.0791 62.992 81.4655 62.9632 81.6887 62.9056C81.9119 62.848 82.0535 62.7424 82.1111 62.5912C82.1687 62.44 82.1975 62.1688 82.1975 61.78V56.5961H75.2376V61.7848C75.2376 62.1592 75.2712 62.4256 75.336 62.584C75.4008 62.7424 75.5448 62.8504 75.768 62.908C75.9912 62.9656 76.3704 62.9944 76.9032 62.9944V63.6208H71.5848ZM95.9877 58.4536V58.648H89.1143C89.1431 59.9872 89.3853 61.048 89.8389 61.8256C90.2925 62.6032 91.0965 62.992 92.2485 62.992C93.0837 62.992 93.7461 62.776 94.2381 62.344C94.7277 61.912 95.0877 61.3576 95.3181 60.6808L95.9229 60.94C95.6205 61.8184 95.1525 62.524 94.5189 63.0592C93.8853 63.5944 92.9421 63.8584 91.6869 63.8584C90.1461 63.8584 88.9967 63.412 88.2383 62.5192C87.4823 61.6264 87.1031 60.3424 87.1031 58.672C87.1031 56.9561 87.4919 55.6289 88.2695 54.6833C89.0469 53.7401 90.1941 53.2673 91.7061 53.2673C94.5621 53.2673 95.9877 54.9953 95.9877 58.4536ZM89.1143 57.9568H93.9765C93.9765 56.5889 93.8109 55.5761 93.4797 54.9209C93.1485 54.2657 92.5653 53.9369 91.7277 53.9369C90.8781 53.9369 90.2445 54.2729 89.8245 54.9425C89.4093 55.6121 89.1719 56.6177 89.1143 57.9568ZM107.186 62.7328L107.337 63.2728C107.064 63.4456 106.783 63.5824 106.495 63.6832C106.207 63.784 105.832 63.8344 105.372 63.8344C104.94 63.8344 104.611 63.748 104.388 63.5752C104.164 63.4024 104.03 63.028 103.987 62.452C103.454 62.9128 102.936 63.2632 102.432 63.5008C101.928 63.7384 101.366 63.8584 100.745 63.8584C99.9525 63.8584 99.3069 63.6736 98.8101 63.3064C98.3133 62.9392 98.0637 62.4016 98.0637 61.696C98.0637 60.688 98.5749 59.8072 99.5973 59.0584C100.62 58.3096 102.084 57.784 103.984 57.4817V56.2289C103.984 55.4945 103.836 54.9473 103.54 54.5873C103.245 54.2273 102.736 54.0473 102.016 54.0473C101.512 54.0473 101.059 54.1409 100.656 54.3281C100.253 54.5153 100.051 54.7025 100.051 54.8897C100.051 54.9905 100.121 55.0961 100.257 55.2041C100.394 55.3121 100.502 55.4201 100.581 55.5281C100.661 55.6361 100.701 55.7993 100.701 56.0153C100.701 56.3177 100.615 56.5601 100.442 56.7401C100.269 56.9201 100.025 57.0113 99.7077 57.0113C99.3765 57.0113 99.1125 56.9105 98.9181 56.7089C98.7237 56.5073 98.6253 56.2265 98.6253 55.8665C98.6253 55.4201 98.7741 55.0025 99.0693 54.6137C99.3645 54.2249 99.8109 53.9081 100.409 53.6633C101.006 53.4185 101.738 53.2961 102.602 53.2961C103.696 53.2961 104.505 53.5193 105.024 53.9657C105.542 54.4121 105.801 55.1897 105.801 56.3009V61.4248C105.801 61.9864 105.864 62.3728 105.986 62.5816C106.108 62.7904 106.308 62.896 106.581 62.896C106.752 62.884 106.956 62.8336 107.186 62.7328ZM100.008 61.1776C100.008 61.6816 100.152 62.0608 100.44 62.3128C100.728 62.5648 101.145 62.692 101.692 62.692C102.096 62.692 102.482 62.6056 102.849 62.4328C103.216 62.26 103.596 62.0296 103.984 61.7416V58.1752C102.645 58.4632 101.647 58.8496 100.992 59.332C100.337 59.8144 100.008 60.4288 100.008 61.1776ZM108.223 63.6208V62.9944C108.698 62.9944 109.036 62.9656 109.238 62.908C109.44 62.8504 109.569 62.7448 109.627 62.5936C109.684 62.4424 109.713 62.1856 109.713 61.8256V50.6729C109.713 50.2985 109.67 50.0489 109.584 49.9265C109.497 49.8041 109.324 49.7417 109.065 49.7417H108.331V49.0937L110.947 48.6617H111.552V61.8256C111.552 62.1856 111.58 62.4424 111.638 62.5936C111.696 62.7448 111.825 62.8504 112.027 62.908C112.228 62.9656 112.56 62.9944 113.02 62.9944V63.6208H108.223ZM117.583 63.8584C116.992 63.8584 116.491 63.6856 116.08 63.34C115.67 62.9944 115.463 62.4112 115.463 61.588V54.1961H113.887V53.5481C115.384 53.3897 116.315 52.2809 116.675 50.2193H117.302V53.5049H119.702V54.1961H117.302V61.264C117.302 61.8544 117.393 62.2768 117.573 62.5288C117.753 62.7808 118.024 62.908 118.384 62.908C118.615 62.908 118.852 62.8528 119.097 62.7448C119.342 62.6368 119.551 62.5168 119.723 62.3872L119.961 62.9056C119.529 63.2224 119.15 63.46 118.826 63.6184C118.502 63.7768 118.087 63.8584 117.583 63.8584ZM130.509 61.8256C130.509 62.1856 130.538 62.4424 130.595 62.5936C130.653 62.7448 130.782 62.8504 130.984 62.908C131.186 62.9656 131.524 62.9944 131.999 62.9944V63.6208H127.266V62.9944C127.713 62.9944 128.034 62.9656 128.229 62.908C128.423 62.8504 128.55 62.7496 128.608 62.6056C128.666 62.4616 128.694 62.2168 128.694 61.8712V56.6177C128.694 55.9265 128.531 55.3673 128.207 54.9425C127.883 54.5177 127.367 54.3041 126.662 54.3041C126.129 54.3041 125.656 54.4409 125.246 54.7145C124.835 54.9881 124.456 55.3841 124.111 55.9025V61.8688C124.111 62.2144 124.139 62.4592 124.197 62.6032C124.255 62.7472 124.382 62.848 124.576 62.9056C124.771 62.9632 125.092 62.992 125.538 62.992V63.6184H120.806V62.992C121.281 62.992 121.619 62.9632 121.821 62.9056C122.023 62.848 122.15 62.7472 122.2 62.6032C122.251 62.4592 122.277 62.2 122.277 61.8256V50.6729C122.277 50.2985 122.234 50.0489 122.147 49.9265C122.061 49.8041 121.895 49.7417 121.651 49.7417H120.911V49.0937L123.506 48.6617H124.111V54.8873H124.175C124.636 54.3401 125.14 53.9321 125.687 53.6657C126.234 53.3993 126.868 53.2649 127.59 53.2649C129.537 53.2649 130.509 54.3017 130.509 56.3777V61.8256Z" fill="#08376B"/>
<path d="M67.5346 17.5H66.5698V63.8578H67.5346V17.5Z" fill="#08376B"/>
<path d="M74.94 22.2159L72.3792 18.3784H72.3648V21.628C72.3648 21.7552 72.3912 21.844 72.4416 21.8992C72.492 21.9543 72.5808 21.9807 72.7008 21.9807H72.9648V22.1775H71.5896V21.9807H71.7864C71.8944 21.9807 71.9736 21.9519 72.0264 21.8968C72.0792 21.8416 72.1032 21.7504 72.1032 21.6304V18.2968C72.1032 18.1792 72.0912 18.0952 72.0696 18.0472C72.048 17.9968 72.0024 17.9632 71.9352 17.9464C71.868 17.9296 71.7504 17.9176 71.5848 17.9128V17.716H72.72L74.9976 21.1744H75.0168V18.2368C75.0168 18.0208 74.9016 17.9128 74.6712 17.9128H74.4072V17.716H75.7848V17.9128H75.5832C75.3768 17.9128 75.2736 18.0208 75.2736 18.2368V22.2159H74.94ZM78.9599 20.56V20.62H76.812C76.8216 21.04 76.896 21.3688 77.0376 21.6136C77.1791 21.856 77.4311 21.9783 77.7911 21.9783C78.0527 21.9783 78.2591 21.9112 78.4127 21.7768C78.5663 21.6424 78.6791 21.4672 78.7511 21.256L78.9407 21.3376C78.8471 21.6112 78.7007 21.832 78.5015 21.9999C78.3023 22.1655 78.0095 22.2495 77.6159 22.2495C77.1336 22.2495 76.776 22.1103 76.5384 21.8296C76.3008 21.5488 76.1832 21.1504 76.1832 20.6272C76.1832 20.092 76.3056 19.6768 76.548 19.3816C76.7904 19.0864 77.1503 18.94 77.6231 18.94C78.5135 18.94 78.9599 19.48 78.9599 20.56ZM76.812 20.404H78.3311C78.3311 19.9768 78.2783 19.66 78.1751 19.456C78.0719 19.252 77.8895 19.1488 77.6279 19.1488C77.3615 19.1488 77.1647 19.2544 77.0328 19.4632C76.9032 19.672 76.8288 19.9864 76.812 20.404ZM80.5079 22.1751L79.6775 19.48C79.6463 19.3672 79.6031 19.2952 79.5455 19.2616C79.4903 19.228 79.3943 19.2112 79.2575 19.2112V19.0144H80.5823V19.2112H80.3735C80.2823 19.2112 80.2391 19.252 80.2391 19.3336C80.2391 19.36 80.2463 19.3936 80.2583 19.4344L80.8391 21.5416H80.8535L81.5639 19.0696H81.9215L82.6919 21.5416H82.7063L83.2535 19.4464C83.2631 19.42 83.2679 19.384 83.2679 19.3384C83.2679 19.2928 83.2535 19.2616 83.2271 19.24C83.2007 19.2208 83.1575 19.2088 83.0999 19.2088H82.8239V19.012H83.9927V19.2088C83.8295 19.2088 83.7191 19.2304 83.6591 19.2736C83.5991 19.3168 83.5487 19.408 83.5127 19.5472L82.7279 22.1751H82.3559L81.6071 19.8784H81.5879L80.8775 22.1751H80.5079ZM88.4255 17.716H89.7359V17.9128C89.6063 17.9128 89.5055 17.9224 89.4383 17.944C89.3711 17.9632 89.3135 17.9992 89.2703 18.052C89.2247 18.1048 89.1719 18.1888 89.1071 18.3064L88.0943 20.3536V21.5776C88.0943 21.7048 88.1063 21.7936 88.1279 21.844C88.1495 21.8968 88.2023 21.9328 88.2863 21.9519C88.3703 21.9711 88.5119 21.9831 88.7159 21.9831V22.1799H86.8727V21.9831C87.0719 21.9831 87.2111 21.9735 87.2951 21.9519C87.3791 21.9328 87.4319 21.8968 87.4535 21.844C87.4751 21.7912 87.4871 21.7024 87.4871 21.5776V20.4352L86.3591 18.2464C86.2919 18.112 86.2223 18.0232 86.1503 17.98C86.0783 17.9368 85.9607 17.9152 85.7999 17.9152V17.716H87.4007V17.9128H87.0695C86.9927 17.9128 86.9543 17.944 86.9543 18.0064C86.9543 18.0328 86.9663 18.0688 86.9879 18.1144L87.9407 20.0464H87.9551L88.8599 18.1336C88.8815 18.0784 88.8935 18.04 88.8935 18.0112C88.8935 17.944 88.8527 17.9104 88.7711 17.9104H88.4255V17.716ZM90.9237 22.2495C89.9469 22.2495 89.4575 21.6976 89.4575 20.5936C89.4575 20.0488 89.5799 19.636 89.8221 19.3528C90.0645 19.072 90.4341 18.9304 90.9309 18.9304C91.9077 18.9304 92.3973 19.4824 92.3973 20.5864C92.3973 21.6952 91.9053 22.2495 90.9237 22.2495ZM90.9309 22.0335C91.4901 22.0335 91.7685 21.5632 91.7685 20.6224C91.7685 19.6408 91.4877 19.1488 90.9237 19.1488C90.6453 19.1488 90.4341 19.2712 90.2949 19.516C90.1557 19.7608 90.0861 20.1208 90.0861 20.5936C90.0861 21.5536 90.3669 22.0335 90.9309 22.0335ZM94.8213 18.9328C94.9845 18.9328 95.1093 18.9808 95.1957 19.0744C95.2821 19.168 95.3277 19.3 95.3277 19.4656C95.3277 19.6 95.2965 19.7056 95.2341 19.7824C95.1717 19.8592 95.0733 19.8976 94.9437 19.8976C94.8309 19.8976 94.7445 19.8688 94.6845 19.8088C94.6245 19.7512 94.5933 19.6744 94.5933 19.5784C94.5933 19.5232 94.6029 19.48 94.6197 19.444C94.6365 19.408 94.6653 19.3696 94.7013 19.3288C94.7373 19.288 94.7565 19.2568 94.7565 19.2352C94.7565 19.1944 94.7277 19.1752 94.6677 19.1752C94.5813 19.1752 94.4901 19.2184 94.3941 19.3024C94.2981 19.3888 94.2117 19.504 94.1397 19.6504C94.0677 19.7968 94.0221 19.9552 94.0053 20.1256V21.6112C94.0053 21.7288 94.0149 21.8104 94.0365 21.8584C94.0557 21.9064 94.1013 21.9376 94.1685 21.9519C94.2357 21.9687 94.3509 21.9759 94.5141 21.9759V22.1727H92.9661V21.9759C93.1149 21.9759 93.2205 21.9663 93.2829 21.9495C93.3453 21.9303 93.3861 21.8992 93.4005 21.856C93.4173 21.8104 93.4245 21.7288 93.4245 21.6136V19.6C93.4245 19.4824 93.4101 19.4056 93.3837 19.3672C93.3573 19.3288 93.3045 19.3096 93.2277 19.3096H92.9973V19.108L93.7941 18.9736H93.9837V19.6096H93.9909C94.0893 19.42 94.2021 19.2616 94.3293 19.1296C94.4541 18.9976 94.6197 18.9328 94.8213 18.9328ZM98.6061 21.9783H98.6733V22.1751H97.3629V21.9783H97.4637C97.5717 21.9783 97.6269 21.9543 97.6269 21.904C97.6269 21.8728 97.5813 21.7912 97.4925 21.6616L96.7149 20.6152L96.4581 20.8912V21.6136C96.4581 21.7264 96.4677 21.8056 96.4845 21.8536C96.5037 21.9016 96.5421 21.9328 96.6069 21.9519C96.6693 21.9711 96.7725 21.9783 96.9165 21.9783V22.1751H95.4165V21.9783C95.5653 21.9783 95.6709 21.9687 95.7333 21.9519C95.7957 21.9328 95.8365 21.9016 95.8557 21.8536C95.8749 21.8056 95.8821 21.7264 95.8821 21.6136V18.1288C95.8821 18.0112 95.8677 17.9344 95.8413 17.896C95.8149 17.8576 95.7597 17.8384 95.6781 17.8384H95.4477V17.6344L96.2661 17.5H96.4557V20.6152L97.3941 19.5808C97.5021 19.4584 97.5573 19.3672 97.5573 19.3048C97.5573 19.2424 97.5141 19.2112 97.4301 19.2112H97.3029V19.0144H98.5317V19.2112H98.4381C98.2629 19.2112 98.1069 19.2544 97.9725 19.3384C97.8381 19.4224 97.6869 19.5592 97.5189 19.744L97.0797 20.224L97.9845 21.4336C98.1477 21.6544 98.2701 21.8008 98.3517 21.8728C98.4357 21.9423 98.5197 21.9783 98.6061 21.9783Z" fill="#08376B"/>
</svg>
