<svg width="144" height="80" viewBox="0 0 144 80" fill="none" xmlns="http://www.w3.org/2000/svg">
<path fill-rule="evenodd" clip-rule="evenodd" d="M46.5374 29H55.3481C55.6036 35.538 51.5304 41.384 42.9519 55H39.7663C39.4381 50.518 38.1942 44.38 36.7059 39.236L27.7417 55H24.0118C23.4262 47.424 20.1022 34.434 18 29.038L23.3636 29C25.0185 34.393 27.2964 42.894 27.6306 47.705C30.8475 41.891 34.5087 34.54 36.7281 29H37.8367C39.8844 33.59 42.6773 42.714 43.4174 48.779C45.459 46.747 48.3115 41.231 48.5447 37.969C48.8971 33.044 46.5374 29 46.5374 29ZM86.5643 28.357C92.1459 28.357 94.7379 31.667 94.7379 37.073V55H89.3258V39.223C89.3258 34.7 87.4104 32.769 83.9148 32.769C81.2653 32.769 78.7299 34.314 76.8701 36.686V55H71.5146V16.441L76.8701 15V34.866C79.6316 30.729 82.2811 28.356 86.5643 28.356V28.357ZM118.56 37.505C118.097 41.943 117.968 47.448 122 55H115.508C112.448 52.476 113.245 39.605 113.245 39.605C113.245 35.191 111.362 33.306 107.929 33.306C105.327 33.306 102.835 34.814 101.008 37.128V55H95.7476V31.306L101.008 29.744V35.352C103.72 31.315 106.323 29 110.53 29C116.012 29 119.104 32.257 118.559 37.505H118.56ZM62.6958 24.113C62.6965 25.1387 62.3648 26.1377 61.7496 26.9628C61.1343 27.788 60.268 28.3958 59.2779 28.697H70.5049V30.612H62.8179L62.9028 48.267C62.9028 50.927 64.1609 52.285 66.7316 52.285C68.645 52.285 70.0677 51.525 70.3403 51.362L70.5049 51.579C68.9731 53.697 66.567 55 63.5045 55C60.223 55 57.3786 53.534 57.3786 48.43V20.543L58.6761 20.17L62.6958 19V24.113Z" fill="black"/>
</svg>
