<svg width="144" height="80" viewBox="0 0 144 80" fill="none" xmlns="http://www.w3.org/2000/svg">
<path d="M40.1537 43.9944V56.4621H9.31946V56.0657L28.1409 24.1252H24.845C22.5899 24.1252 20.5516 24.2133 18.7302 24.4336C16.9088 24.6099 15.3042 25.3588 13.9164 26.6364C13.396 27.1651 13.0057 27.7378 12.7021 28.3987C12.3985 29.0595 12.1383 29.7203 11.9215 30.3812C11.7047 31.1301 11.5746 31.9231 11.4878 32.6721H10.8807L12.1383 23.6406H40.9777V24.0371L22.1562 55.9777H26.7965C27.8807 55.9777 28.8782 55.9777 29.7889 55.9337C30.6996 55.8893 31.567 55.7573 32.3909 55.4929C33.2149 55.2285 33.9955 54.8761 34.7762 54.3917C35.5568 53.9069 36.3807 53.2021 37.2481 52.3209C37.8119 51.7041 38.2889 51.0433 38.5491 50.4265C38.8527 49.8098 39.0695 49.1489 39.1563 48.4881C39.2864 47.8273 39.3731 47.1224 39.4165 46.4175C39.4598 45.7126 39.5032 44.9196 39.5899 44.0825H40.1537V43.9944Z" fill="black"/>
<path d="M77.8838 55.9331V56.4619H61.7511V52.4967L61.3176 52.7611C59.7564 53.6423 58.0648 54.5235 56.2 55.4043C54.3352 56.2855 52.4704 56.7263 50.6493 56.7263H50.3457C49.4783 56.7263 48.6109 56.5499 47.7869 56.1975C46.9629 55.8451 46.1823 55.3603 45.5318 54.7435C44.8813 54.1267 44.3175 53.3339 43.9272 52.4087C43.5369 51.4835 43.3201 50.4263 43.3201 49.2366C43.3201 48.5758 43.4068 47.915 43.6236 47.2541C43.8405 46.6374 44.1007 46.0206 44.4476 45.4919C44.7078 45.0514 45.0981 44.6108 45.6185 44.0821C46.139 43.5534 46.7461 43.0248 47.44 42.5402C48.0905 42.0115 48.7845 41.5269 49.5216 41.0423C50.2587 40.5576 50.9529 40.1171 51.69 39.7206C53.2945 38.7954 54.9424 37.8702 56.7206 36.9891C58.4987 36.108 60.1899 35.2269 61.7511 34.3898V32.8038C61.7511 31.7024 61.7078 30.601 61.5779 29.4996C61.4475 28.3982 61.1439 27.385 60.7104 26.5038C60.2332 25.6227 59.5827 24.8738 58.759 24.3451C57.8916 23.8164 56.7639 23.508 55.333 23.508C54.8124 23.508 54.3352 23.5521 53.8151 23.5962C53.2945 23.6402 52.8177 23.8164 52.3405 23.9927C51.9503 24.1689 51.6034 24.4332 51.2998 24.7857C50.9962 25.1381 50.8226 25.5787 50.8226 26.0192C50.8226 26.636 51.0828 27.1647 51.5601 27.5612C52.0369 27.9577 52.6008 28.3101 53.1646 28.7066C53.7718 29.1031 54.2919 29.5437 54.7691 30.0283C55.246 30.557 55.5062 31.1738 55.5062 32.0108C55.5062 33.3766 55.0727 34.4339 54.162 35.1828C53.2512 35.9318 52.2539 36.3283 51.0828 36.3283C50.3891 36.3283 49.6953 36.1961 49.0011 35.9318C48.3073 35.6674 47.7002 35.271 47.1364 34.7423C46.5726 34.2136 46.0956 33.6409 45.7486 32.98C45.4017 32.3192 45.2282 31.5703 45.2282 30.7332C45.2282 29.015 45.7486 27.6052 46.7461 26.5479C47.7869 25.4906 49.0444 24.6535 50.519 24.0808C52.0369 23.508 53.5981 23.1116 55.2897 22.8913C56.9808 22.671 58.4987 22.5829 59.843 22.5829C61.4042 22.5829 62.9654 22.715 64.5267 23.0234C66.1312 23.3318 67.5625 23.8164 68.8634 24.5654C70.1644 25.2703 71.2054 26.2836 72.0729 27.5612C72.8966 28.8388 73.3305 30.4689 73.3305 32.4073V55.9331H77.8838ZM59.4961 53.0695C59.843 52.8935 60.1899 52.7171 60.6238 52.4967C61.0573 52.2767 61.4042 52.0563 61.7511 51.8799V34.9626C60.8404 35.4031 60.0166 35.9758 59.2358 36.7688C58.4987 37.5618 57.8483 38.443 57.3277 39.4122C56.8072 40.3814 56.417 41.4388 56.1134 42.5402C55.8098 43.6416 55.6799 44.787 55.6799 45.8884V49.8534C55.6799 50.6463 55.9835 51.4395 56.6339 52.1883C57.2411 52.9375 57.9349 53.2899 58.7157 53.2899C58.9756 53.2899 59.2358 53.2015 59.4961 53.0695Z" fill="black"/>
<path d="M112.881 51.1788C113.619 52.192 114.269 53.0292 114.833 53.6456C115.397 54.2624 115.874 54.7472 116.307 55.0996C116.785 55.54 117.175 55.8044 117.565 55.9808V56.4212H111.667C111.147 56.4212 110.496 56.4212 109.716 56.3772C108.935 56.3332 108.024 56.2012 107.07 55.9808C106.116 55.7604 105.162 55.408 104.208 54.9236C103.21 54.4388 102.3 53.778 101.476 52.9408C100.739 52.192 100.001 51.3108 99.3509 50.2976C98.7005 49.2843 98.0063 48.2269 97.2692 47.0374C96.5754 45.8479 95.7946 44.5703 94.9705 43.2045C94.1467 41.8388 93.1927 40.429 92.1083 38.9311L91.9351 39.1954V55.8928H96.6187V56.4212H75.7157V55.8928H80.4427V12.4976H75.759V11.9689H80.4427C82.0039 11.8808 83.4785 11.7927 84.8661 11.6606C86.0804 11.5724 87.338 11.4403 88.639 11.2641C89.9399 11.0878 91.0243 10.8676 91.848 10.6473V38.4906L103.427 28.4899C103.514 28.4018 103.644 28.2255 103.774 27.8731C103.904 27.5647 103.991 27.1682 103.991 26.6836C103.991 26.0668 103.861 25.5381 103.601 25.1857C103.34 24.8332 103.037 24.5689 102.647 24.4367C102.3 24.3046 101.953 24.1724 101.649 24.1284C101.346 24.0843 101.129 24.0843 101.042 24.0843H100.175V23.5556H113.402V24.0843H111.71C110.973 24.0843 110.192 24.2605 109.412 24.657C108.631 25.0535 107.894 25.4941 107.2 25.9787C106.507 26.5074 105.856 26.992 105.292 27.5207C104.728 28.0493 104.251 28.4018 103.991 28.6661L100.435 31.9263C101.866 34.2612 102.994 36.1115 103.818 37.5213C104.642 38.9311 105.422 40.2087 106.203 41.4423C106.94 42.6318 107.808 43.9535 108.848 45.4073C109.759 46.8612 111.147 48.7556 112.881 51.1788Z" fill="black"/>
<path d="M119.127 50.1188C119.127 49.1495 119.344 48.2243 119.735 47.3873C120.168 46.5502 120.732 45.8013 121.426 45.1845C122.12 44.5677 122.944 44.039 123.898 43.6866C124.852 43.3341 125.85 43.1579 126.934 43.1579C128.061 43.1579 129.102 43.3341 130.099 43.6866C131.097 44.039 131.921 44.5237 132.658 45.1845C133.395 45.8453 133.959 46.5502 134.393 47.3873C134.826 48.2243 135 49.1495 135 50.1188C135 51.088 134.783 52.0132 134.393 52.8944C133.959 53.7752 133.395 54.5244 132.658 55.1412C131.921 55.758 131.053 56.2864 130.099 56.6388C129.102 56.9916 128.061 57.1676 126.934 57.1676C125.85 57.1676 124.852 56.9916 123.898 56.6388C122.944 56.2864 122.12 55.802 121.426 55.1412C120.732 54.5244 120.168 53.7752 119.735 52.8944C119.344 52.0132 119.127 51.088 119.127 50.1188Z" fill="black"/>
</svg>
